<svg width="377" height="238" viewBox="0 0 377 238" fill="none" xmlns="http://www.w3.org/2000/svg">
    <g clip-path="url(#clip0)">
        <path d="M222.608 15.7075H180.943V16.4739H222.608V15.7075Z" fill="#CCCCCC"/>
        <path d="M148.405 15.7075H16.2688V16.4739H148.405V15.7075Z" fill="#CCCCCC"/>
        <path d="M16.2689 31.799C25.2539 31.799 32.5377 24.7663 32.5377 16.091C32.5377 7.41576 25.2539 0.383057 16.2689 0.383057C7.28382 0.383057 0 7.41576 0 16.091C0 24.7663 7.28382 31.799 16.2689 31.799Z" fill="#FAA307"/>
        <path d="M90.4715 31.799C99.4565 31.799 106.74 24.7663 106.74 16.091C106.74 7.41576 99.4565 0.383057 90.4715 0.383057C81.4865 0.383057 74.2026 7.41576 74.2026 16.091C74.2026 24.7663 81.4865 31.799 90.4715 31.799Z" fill="#3F3D56"/>
        <path d="M164.672 32.1827C161.376 32.1827 158.154 31.239 155.413 29.4709C152.672 27.7027 150.536 25.1896 149.275 22.2493C148.014 19.309 147.684 16.0735 148.327 12.9521C148.97 9.83068 150.557 6.96348 152.888 4.71306C155.218 2.46264 158.188 0.930089 161.421 0.3092C164.654 -0.31169 168.005 0.00696886 171.05 1.22489C174.095 2.4428 176.698 4.50528 178.53 7.15149C180.361 9.7977 181.338 12.9088 181.338 16.0914C181.338 20.3591 179.582 24.452 176.457 27.4697C173.331 30.4874 169.092 32.1827 164.672 32.1827ZM164.672 0.766362C161.533 0.766362 158.464 1.66516 155.854 3.3491C153.244 5.03303 151.21 7.42647 150.008 10.2268C148.807 13.027 148.493 16.1084 149.105 19.0811C149.717 22.0539 151.229 24.7846 153.449 26.9278C155.669 29.071 158.497 30.5306 161.576 31.1219C164.655 31.7132 167.846 31.4098 170.746 30.2498C173.647 29.0899 176.126 27.1257 177.87 24.6055C179.614 22.0853 180.545 19.1224 180.545 16.0914C180.545 12.0269 178.872 8.12896 175.896 5.25496C172.919 2.38096 168.882 0.766362 164.672 0.766362Z" fill="#CCCCCC"/>
        <path d="M238.875 32.1827C235.578 32.1827 232.356 31.239 229.616 29.4709C226.875 27.7027 224.739 25.1896 223.477 22.2493C222.216 19.309 221.886 16.0735 222.529 12.9521C223.172 9.83068 224.759 6.96348 227.09 4.71306C229.421 2.46264 232.39 0.930089 235.623 0.3092C238.856 -0.31169 242.207 0.00696886 245.253 1.22489C248.298 2.4428 250.901 4.50528 252.732 7.15149C254.563 9.7977 255.541 12.9088 255.541 16.0914C255.541 20.3591 253.785 24.452 250.659 27.4697C247.534 30.4874 243.295 32.1827 238.875 32.1827ZM238.875 0.766362C235.735 0.766362 232.667 1.66516 230.057 3.3491C227.446 5.03303 225.412 7.42647 224.211 10.2268C223.009 13.027 222.695 16.1084 223.307 19.0811C223.92 22.0539 225.432 24.7846 227.651 26.9278C229.871 29.071 232.699 30.5306 235.778 31.1219C238.857 31.7132 242.048 31.4098 244.949 30.2498C247.849 29.0899 250.328 27.1257 252.072 24.6055C253.816 22.0853 254.747 19.1224 254.747 16.0914C254.747 14.0789 254.336 12.0861 253.539 10.2268C252.741 8.36743 251.572 6.67802 250.098 5.25496C248.624 3.8319 246.874 2.70306 244.949 1.93291C243.023 1.16275 240.959 0.766362 238.875 0.766362Z" fill="#CCCCCC"/>
        <path d="M15.0164 20.7749C14.7306 20.7751 14.4525 20.6856 14.224 20.5198L14.2099 20.5096L11.2239 18.3045C10.9446 18.0978 10.7618 17.7924 10.7158 17.4555C10.6697 17.1186 10.7641 16.7779 10.9782 16.5083C11.1924 16.2386 11.5087 16.0621 11.8576 16.0177C12.2064 15.9732 12.5593 16.0643 12.8386 16.2711L14.7725 17.7031L19.3425 11.9462C19.5565 11.6767 19.8726 11.5003 20.2214 11.4559C20.5701 11.4114 20.9228 11.5025 21.202 11.7091L21.1738 11.7469L21.2029 11.7091C21.4818 11.916 21.6642 12.2213 21.7102 12.558C21.7562 12.8947 21.6619 13.2352 21.448 13.5049L16.0725 20.2729C15.948 20.4289 15.7879 20.5552 15.6047 20.6418C15.4214 20.7284 15.22 20.7731 15.016 20.7723L15.0164 20.7749Z" fill="white"/>
        <path d="M289.041 83.2926C289.346 83.4268 289.638 83.5842 289.916 83.7635L317.718 72.3069L318.71 65.2358L329.819 65.1699L329.162 81.3888L292.467 90.7598C292.389 91.0059 292.297 91.2472 292.189 91.4824C291.658 92.5754 290.805 93.4927 289.736 94.119C288.668 94.7453 287.431 95.0528 286.182 95.0028C284.933 94.9528 283.727 94.5475 282.715 93.8379C281.704 93.1283 280.932 92.146 280.497 91.0143C280.062 89.8826 279.983 88.652 280.27 87.4771C280.557 86.3022 281.197 85.2353 282.11 84.4105C283.022 83.5856 284.167 83.0396 285.401 82.8409C286.634 82.6423 287.9 82.7998 289.041 83.2939L289.041 83.2926Z" fill="#FEB8B8"/>
        <path d="M333.859 230.256H326.259L322.644 201.955H333.86L333.859 230.256Z" fill="#FEB8B8"/>
        <path d="M320.831 228.16H335.487V237.067H311.603C311.603 234.704 312.575 232.437 314.306 230.766C316.037 229.095 318.384 228.157 320.831 228.157V228.16Z" fill="#2F2E41"/>
        <path d="M363.414 228.184L355.851 228.902L349.38 201.08L360.542 200.021L363.414 228.184Z" fill="#FEB8B8"/>
        <path d="M350.231 227.332L364.814 225.945L365.719 234.81L341.955 237.07C341.715 234.719 342.452 232.373 344.004 230.546C345.556 228.72 347.796 227.564 350.231 227.332H350.231Z" fill="#2F2E41"/>
        <path d="M335.974 35.2175C344.382 35.2175 351.198 28.6364 351.198 20.5182C351.198 12.4 344.382 5.81885 335.974 5.81885C327.566 5.81885 320.75 12.4 320.75 20.5182C320.75 28.6364 327.566 35.2175 335.974 35.2175Z" fill="#FEB8B8"/>
        <path d="M324.561 224.533C323.908 224.534 323.275 224.313 322.774 223.907C322.274 223.502 321.937 222.94 321.824 222.318C317.893 201.24 305.033 132.306 304.726 130.395C304.719 130.351 304.715 130.306 304.716 130.262V125.121C304.715 124.934 304.776 124.752 304.889 124.6L306.587 122.304C306.668 122.194 306.774 122.103 306.897 122.038C307.02 121.973 307.156 121.936 307.296 121.93C316.981 121.492 348.693 120.207 350.225 122.055C351.764 123.911 351.217 129.541 351.093 130.65L351.099 130.765L365.347 218.742C365.459 219.444 365.279 220.16 364.848 220.735C364.417 221.31 363.769 221.698 363.043 221.815L354.145 223.231C353.482 223.333 352.803 223.203 352.231 222.863C351.66 222.524 351.233 221.997 351.03 221.379C348.277 212.888 339.049 184.322 335.85 173.269C335.833 173.196 335.788 173.132 335.724 173.089C335.66 173.047 335.582 173.03 335.505 173.04C335.429 173.051 335.359 173.089 335.31 173.147C335.261 173.205 335.237 173.279 335.242 173.354C335.402 183.89 335.788 210.773 335.924 220.058L335.938 221.058C335.944 221.735 335.686 222.39 335.217 222.892C334.747 223.395 334.099 223.709 333.401 223.773L324.82 224.523C324.734 224.531 324.647 224.534 324.561 224.533Z" fill="#2F2E41"/>
        <path d="M326.312 40.9975C323.655 42.5225 322.065 45.3244 321.153 48.1807C319.464 53.4601 318.447 58.9185 318.126 64.4353L317.161 80.9522L305.225 124.744C315.571 133.195 321.537 131.274 335.462 124.361C349.388 117.449 350.979 126.666 350.979 126.666L353.763 89.405L357.742 48.6887C356.849 47.6505 355.838 46.7122 354.728 45.8915C351.051 43.13 346.772 41.2105 342.215 40.2774C337.658 39.3443 332.941 39.4221 328.42 40.5048L326.312 40.9975Z" fill="#E6E6E6"/>
        <path d="M322.435 92.136C322.756 92.2519 323.067 92.3921 323.365 92.5551L350.856 79.2686L351.312 72.0713L362.651 71.3164L363.259 87.7232L326.522 99.4544C326.223 100.697 325.538 101.823 324.56 102.681C323.581 103.539 322.355 104.089 321.045 104.258C319.735 104.427 318.403 104.207 317.225 103.627C316.048 103.047 315.082 102.134 314.454 101.011C313.827 99.8876 313.569 98.6064 313.715 97.338C313.86 96.0695 314.402 94.8739 315.269 93.9102C316.135 92.9465 317.285 92.2603 318.565 91.943C319.846 91.6257 321.196 91.6922 322.436 92.1339L322.435 92.136Z" fill="#FEB8B8"/>
        <path d="M357.543 48.8722C364.307 51.1768 365.499 76.1478 365.499 76.1478C357.542 71.9225 347.993 78.8367 347.993 78.8367C347.993 78.8367 346.004 72.3059 343.617 63.8555C342.896 61.4784 342.81 58.9639 343.366 56.546C343.923 54.1281 345.104 51.8854 346.799 50.0267C346.799 50.0267 350.779 46.5664 357.543 48.8722Z" fill="#E6E6E6"/>
        <path d="M349.622 24.4041C347.725 22.939 345.138 25.6011 345.138 25.6011L343.62 12.4179C343.62 12.4179 334.137 13.5149 328.065 12.0515C321.994 10.588 321.047 17.3645 321.047 17.3645C320.734 14.6278 320.671 11.8699 320.857 9.12247C321.237 5.82581 326.168 2.52917 334.894 0.331256C343.619 -1.86665 348.172 7.65734 348.172 7.65734C354.245 10.5855 351.521 25.871 349.622 24.4041Z" fill="#2F2E41"/>
        <path d="M377 237.069H52.3865V237.999H377V237.069Z" fill="#E6E6E6"/>
        <path d="M83.7017 220.631C85.0907 221.102 86.5821 221.22 88.0322 220.974C89.4822 220.727 90.842 220.124 91.9805 219.223C94.8803 216.873 95.7893 213.002 96.5289 209.417L98.7168 198.814L94.1363 201.86C90.8421 204.049 87.474 206.31 85.1927 209.482C82.9115 212.654 81.9162 216.984 83.7488 220.417" fill="#E6E6E6"/>
        <path d="M84.4093 234.206C83.8326 230.15 83.2396 226.043 83.6442 221.943C84.0034 218.303 85.1537 214.747 87.4957 211.832C88.7387 210.288 90.2512 208.964 91.9652 207.922C92.4121 207.649 92.8237 208.333 92.3786 208.604C89.4122 210.414 87.1177 213.086 85.8259 216.236C84.3996 219.739 84.1707 223.557 84.4172 227.277C84.566 229.528 84.8807 231.763 85.1981 233.995C85.2231 234.096 85.2075 234.202 85.1543 234.293C85.1012 234.383 85.0146 234.45 84.912 234.481C84.8073 234.509 84.6957 234.495 84.6014 234.443C84.5072 234.391 84.4378 234.306 84.4084 234.205L84.4093 234.206Z" fill="#F2F2F2"/>
        <path d="M88.5591 227.698C89.1548 228.572 89.9737 229.283 90.9368 229.763C91.8999 230.243 92.9748 230.476 94.0579 230.438C96.8414 230.31 99.1623 228.435 101.251 226.655L107.43 221.388L103.341 221.199C100.4 221.063 97.3833 220.937 94.5804 221.812C91.7776 222.688 89.1961 224.795 88.6841 227.593" fill="#E6E6E6"/>
        <path d="M82.7796 236.537C85.553 231.795 88.7745 226.525 94.5269 224.84C96.1263 224.374 97.8035 224.206 99.4679 224.348C99.9927 224.39 99.8615 225.172 99.3359 225.129C96.5458 224.905 93.7611 225.616 91.4506 227.143C89.2271 228.604 87.4961 230.635 86.031 232.79C85.1334 234.108 84.3296 235.485 83.5257 236.859C83.2695 237.298 82.5211 236.981 82.7796 236.537Z" fill="#F2F2F2"/>
        <path d="M278.405 99.7145H139.432C138.749 99.7137 138.095 99.4516 137.613 98.9858C137.13 98.52 136.859 97.8884 136.858 97.2297V63.9448C136.859 63.286 137.13 62.6544 137.613 62.1886C138.095 61.7228 138.749 61.4607 139.432 61.46H278.405C279.087 61.4607 279.742 61.7228 280.224 62.1886C280.706 62.6544 280.978 63.286 280.979 63.9448V97.2297C280.978 97.8884 280.706 98.52 280.224 98.9858C279.742 99.4516 279.087 99.7137 278.405 99.7145ZM139.432 62.4541C139.022 62.4546 138.63 62.6118 138.34 62.8914C138.051 63.1709 137.888 63.5499 137.887 63.9452V97.2301C137.888 97.6254 138.051 98.0045 138.34 98.284C138.63 98.5636 139.022 98.7208 139.432 98.7212H278.405C278.815 98.7208 279.207 98.5636 279.497 98.284C279.786 98.0045 279.949 97.6254 279.949 97.2301V63.9448C279.949 63.5494 279.786 63.1704 279.497 62.8908C279.207 62.6113 278.815 62.454 278.405 62.4537L139.432 62.4541Z" fill="#E6E6E6"/>
        <path d="M185.237 72.5618C184.774 72.5618 184.329 72.7395 184.002 73.0559C183.674 73.3723 183.49 73.8014 183.49 74.2488C183.49 74.6962 183.674 75.1253 184.002 75.4417C184.329 75.758 184.774 75.9358 185.237 75.9358H267.606C268.07 75.9358 268.514 75.758 268.842 75.4417C269.17 75.1253 269.354 74.6962 269.354 74.2488C269.354 73.8014 269.17 73.3723 268.842 73.0559C268.514 72.7395 268.07 72.5618 267.606 72.5618H185.237Z" fill="#E6E6E6"/>
        <path d="M185.237 82.6841C184.774 82.6841 184.329 82.8618 184.002 83.1782C183.674 83.4946 183.49 83.9237 183.49 84.3711C183.49 84.8185 183.674 85.2476 184.002 85.564C184.329 85.8804 184.774 86.0581 185.237 86.0581H220.681C221.144 86.0581 221.589 85.8804 221.916 85.564C222.244 85.2476 222.428 84.8185 222.428 84.3711C222.428 83.9237 222.244 83.4946 221.916 83.1782C221.589 82.8618 221.144 82.6841 220.681 82.6841H185.237Z" fill="#E6E6E6"/>
        <path d="M161.124 89.3549C166.914 89.3549 171.608 84.8231 171.608 79.2329C171.608 73.6426 166.914 69.1108 161.124 69.1108C155.334 69.1108 150.641 73.6426 150.641 79.2329C150.641 84.8231 155.334 89.3549 161.124 89.3549Z" fill="#E6E6E6"/>
        <path d="M159.476 84.8584C159.124 84.8589 158.781 84.7488 158.499 84.5447L158.482 84.532L154.802 81.8142C154.458 81.5595 154.233 81.183 154.176 80.7677C154.119 80.3524 154.235 79.9323 154.499 79.5997C154.763 79.2672 155.152 79.0495 155.583 78.9945C156.013 78.9395 156.448 79.0517 156.792 79.3065L159.176 81.0708L164.807 73.9768C165.071 73.6447 165.461 73.4273 165.89 73.3725C166.32 73.3177 166.755 73.4298 167.099 73.6844L167.064 73.7311L167.1 73.6844C167.444 73.9394 167.669 74.3156 167.725 74.7304C167.782 75.1452 167.666 75.5649 167.402 75.8972L160.778 84.2425C160.625 84.4346 160.428 84.5901 160.203 84.6968C159.977 84.8035 159.729 84.8587 159.478 84.858L159.476 84.8584Z" fill="#FAA307"/>
    </g>
    <defs>
        <clipPath id="clip0">
            <rect width="377" height="238" fill="white"/>
        </clipPath>
    </defs>
</svg>
