<svg width="870" height="521" viewBox="0 0 870 521" fill="none" xmlns="http://www.w3.org/2000/svg">
<g clip-path="url(#clip0)">
<path d="M203.908 514.257C215.046 504.845 221.811 489.977 220.037 475.503C218.263 461.029 207.274 447.723 193.019 444.649C178.764 441.576 162.515 450.084 158.185 464.009C155.802 437.162 153.056 409.191 138.783 386.329C125.859 365.628 103.474 350.815 79.2145 348.165C54.9545 345.515 29.4119 355.524 14.2818 374.672C-0.848286 393.82 -4.55284 421.658 6.04387 443.641C13.8501 459.836 28.2319 471.888 43.3005 481.693C91.9924 513.11 150.392 525.886 207.754 517.67L203.908 514.257Z" fill="#34D399"/>
<path d="M38.2721 356.079C58.2896 372.383 76.6535 390.619 93.0983 410.521C118.834 441.562 139.66 476.364 154.85 513.715C155.962 516.44 151.538 517.626 150.438 514.932C125.584 454.228 85.9075 400.724 35.0365 359.314C32.7522 357.454 36.0065 354.234 38.2721 356.079Z" fill="white"/>
<path d="M589.933 511.699C574.634 498.772 565.342 478.351 567.779 458.471C570.216 438.591 585.31 420.315 604.888 416.094C624.467 411.872 646.786 423.558 652.733 442.684C656.005 405.81 659.777 367.392 679.381 335.991C697.132 307.558 727.878 287.213 761.199 283.573C794.52 279.933 829.603 293.68 850.384 319.98C871.165 346.28 876.253 384.515 861.699 414.709C850.977 436.952 831.223 453.506 810.527 466.973C744.497 509.939 662.588 527.858 584.649 516.388" fill="#34D399"/>
<path d="M817.433 294.442C789.939 316.836 764.716 341.883 742.129 369.219C719.539 396.526 699.65 425.961 682.743 457.109C673.293 474.582 664.804 492.557 657.313 510.956C655.786 514.698 661.863 516.327 663.373 512.626C676.641 480.19 693.056 449.133 712.382 419.899C731.615 390.772 753.627 363.578 778.111 338.701C791.959 324.637 806.57 311.346 821.877 298.886C825.015 296.331 820.545 291.908 817.433 294.442L817.433 294.442Z" fill="white"/>
<path d="M245.5 519H610.5V144.5C610.5 64.8223 545.678 -3.8147e-06 466 -3.8147e-06H390C310.322 -3.8147e-06 245.5 64.8223 245.5 144.5V519Z" fill="#F2F2F2"/>
<path d="M321.5 519H610.5V144.5C610.58 113.969 600.912 84.2103 582.904 59.5557C582.24 58.6509 581.578 57.7578 580.895 56.8745C572.185 45.4506 561.82 35.3897 550.141 27.0239C549.482 26.5439 548.819 26.0723 548.147 25.6006C538.375 18.838 527.804 13.3097 516.675 9.1416C516.014 8.89111 515.341 8.64013 514.668 8.3994C504.603 4.80747 494.17 2.34702 483.56 1.06347C482.902 0.973624 482.227 0.903315 481.552 0.833005C471.213 -0.272465 460.785 -0.272465 450.446 0.833005C449.773 0.903315 449.098 0.973615 448.432 1.06444C437.825 2.34807 427.394 4.80822 417.332 8.39944C416.659 8.64017 415.986 8.89114 415.323 9.14212C404.331 13.2577 393.885 18.7035 384.217 25.3579C383.545 25.8194 382.873 26.2911 382.21 26.7627C375.664 31.4355 369.515 36.6412 363.827 42.3267C359.265 46.8871 355.014 51.7483 351.102 56.8775C350.422 57.7579 349.759 58.6509 349.097 59.5543C331.088 84.2091 321.42 113.969 321.5 144.5V519Z" fill="#7C2D12"/>
<path d="M345 351.5C336.163 351.5 329 344.337 329 335.5C329 326.663 336.163 319.5 345 319.5C353.837 319.5 361 326.663 361 335.5C361 344.337 353.837 351.5 345 351.5Z" fill="white"/>
<path d="M275.401 507.783H287.661L293.494 460.495L275.399 460.496L275.401 507.783Z" fill="#FFB8B8"/>
<path d="M296.418 504.28H272.774V519.167H311.305C311.305 517.212 310.92 515.276 310.172 513.47C309.424 511.664 308.327 510.022 306.945 508.64C305.563 507.258 303.921 506.161 302.115 505.413C300.309 504.665 298.373 504.28 296.418 504.28V504.28Z" fill="#2F2E41"/>
<path d="M214.401 507.783H226.661L232.494 460.495L214.399 460.496L214.401 507.783Z" fill="#FFB8B8"/>
<path d="M235.418 504.28H211.774V519.167H250.305C250.305 517.212 249.92 515.276 249.172 513.47C248.424 511.664 247.327 510.022 245.945 508.64C244.563 507.258 242.921 506.161 241.115 505.413C239.309 504.665 237.373 504.28 235.418 504.28V504.28Z" fill="#2F2E41"/>
<path d="M336.902 338.67C337.784 337.37 338.371 335.893 338.62 334.343C338.869 332.792 338.776 331.206 338.346 329.695C337.916 328.185 337.16 326.787 336.131 325.6C335.102 324.413 333.826 323.467 332.392 322.827L290.716 207.96L270.209 219.151L317.794 328.922C316.878 331.403 316.904 334.133 317.867 336.595C318.83 339.058 320.663 341.082 323.018 342.283C325.374 343.485 328.088 343.781 330.647 343.115C333.206 342.449 335.432 340.867 336.902 338.67V338.67Z" fill="#FFB8B8"/>
<path d="M220.664 360.254C222.026 359.472 223.201 358.402 224.105 357.118C225.009 355.834 225.62 354.367 225.896 352.821C226.172 351.275 226.105 349.687 225.701 348.169C225.297 346.652 224.565 345.241 223.557 344.037L236.467 222.528L213.13 223.594L207.764 343.114C205.853 344.942 204.68 347.408 204.465 350.043C204.251 352.678 205.011 355.301 206.601 357.414C208.191 359.526 210.501 360.982 213.093 361.506C215.684 362.029 218.378 361.584 220.664 360.254V360.254Z" fill="#FFB8B8"/>
<path d="M257.894 186.684C244.329 186.684 233.333 175.687 233.333 162.123C233.333 148.558 244.329 137.562 257.894 137.562C271.459 137.562 282.455 148.558 282.455 162.123C282.455 175.687 271.459 186.684 257.894 186.684Z" fill="#FFB8B8"/>
<path d="M237.95 270.808L239.954 224.867C241.473 216.23 236.53 208.066 228.926 206.732C221.321 205.402 213.895 211.392 212.368 220.092L204.835 263.02L237.95 270.808Z" fill="#FEF3C7"/>
<path d="M220.82 332.619H294.867L294.778 332.042C294.645 331.181 281.581 245.603 291.216 217.606C292.183 214.855 292.098 211.843 290.978 209.151C289.857 206.459 287.78 204.276 285.147 203.023H285.147C271.375 196.538 244.939 188.552 222.627 207.932C219.343 210.831 216.779 214.454 215.138 218.515C213.496 222.575 212.821 226.962 213.167 231.328L220.82 332.619Z" fill="#D00000"/>
<path d="M280.646 258.25L313.982 251.487L298.356 214.457C297.421 210.871 295.101 207.802 291.906 205.923C288.711 204.044 284.902 203.51 281.313 204.436C277.724 205.363 274.649 207.675 272.763 210.865C270.876 214.056 270.333 217.864 271.25 221.455L280.646 258.25Z" fill="#FEF3C7"/>
<path d="M223.284 327.119C211.369 372.495 210.07 430.188 213.284 493.119L229.284 491.119L258.284 371.119L274.284 493.119L292.284 492.119C297.661 426.089 302.897 369.403 294.284 332.119L223.284 327.119Z" fill="#03071E"/>
<path d="M241.711 181.104C246.293 185.985 254.802 183.365 255.399 176.697C255.446 176.179 255.443 175.658 255.389 175.141C255.081 172.188 253.374 169.506 253.783 166.388C253.876 165.611 254.165 164.872 254.623 164.239C258.275 159.349 266.846 166.426 270.291 161.999C272.404 159.285 269.921 155.012 271.542 151.979C273.682 147.975 280.021 149.95 283.996 147.758C288.419 145.318 288.154 138.532 285.243 134.405C281.692 129.371 275.467 126.685 269.32 126.298C263.172 125.911 257.067 127.573 251.327 129.81C244.806 132.351 238.34 135.863 234.327 141.597C229.446 148.571 228.977 157.945 231.417 166.099C232.902 171.059 237.969 177.118 241.711 181.104Z" fill="#2F2E41"/>
<path d="M401 410.5H531C532.712 410.509 534.358 409.839 535.576 408.636C536.795 407.434 537.487 405.797 537.5 404.085V113.915C537.487 112.203 536.795 110.566 535.576 109.364C534.358 108.161 532.712 107.491 531 107.5H401C399.288 107.491 397.642 108.161 396.423 109.364C395.205 110.566 394.513 112.203 394.5 113.915V404.085C394.513 405.797 395.205 407.434 396.423 408.636C397.642 409.839 399.288 410.509 401 410.5V410.5Z" fill="white"/>
<path d="M394.5 201.39H537.5V203.39H394.5V201.39Z" fill="#9A3412"/>
<path d="M394 315.5H537V317.5H394V315.5Z" fill="#9A3412"/>
<path d="M490.5 107.5H492.5V411.5H490.5V107.5Z" fill="#9A3412"/>
<path d="M440.5 107.5H442.5V411.5H440.5V107.5Z" fill="#9A3412"/>
<path fill-rule="evenodd" clip-rule="evenodd" d="M553.277 418.224C554.004 418.179 555.213 417.555 556.411 417.164C556.862 417.017 557.312 416.903 557.777 416.824C558.2 417.015 558.647 417.182 558.895 417.562C559.154 417.956 559.198 418.58 559.042 419.249C558.885 419.918 558.527 420.632 558.236 421.234C557.945 421.836 557.721 422.327 557.631 423.107C557.542 423.887 557.586 424.957 557.878 425.805C558.169 426.652 558.706 427.276 559.422 427.689C560.139 428.101 561.034 428.302 561.908 428.146C562.782 427.99 563.634 427.477 564.223 426.894C564.479 426.641 564.685 426.373 564.916 426.095C564.658 426.609 564.383 427.166 564.101 427.778C562.937 430.309 561.661 433.787 560.8 438.693C559.938 443.598 559.49 449.931 560.789 456.397C562.087 462.863 565.132 469.463 570.953 474.324C576.209 478.714 583.73 481.685 590.745 484.157C591.266 484.432 591.874 484.754 592.452 485.186C593.554 486.007 594.55 487.223 595.586 489.191C596.622 491.159 597.696 493.879 598.637 495.931C599.35 497.487 599.986 498.657 600.908 499.563C600.764 500.123 600.538 500.793 600.151 501.651C599.311 503.513 597.715 506.26 596.279 508.38C594.843 510.501 593.566 511.995 592.559 512.943C591.551 513.89 590.813 514.292 589.649 514.604C588.484 514.916 586.895 515.139 584.846 515.306C582.798 515.473 580.29 515.585 578.533 515.696C576.775 515.808 575.768 515.919 574.951 516.165C574.133 516.41 573.507 516.789 573.115 517.235C572.723 517.681 572.566 518.194 572.533 518.729C572.499 519.264 572.589 519.822 572.757 519.822C572.925 519.822 573.171 519.264 573.742 518.996C574.313 518.729 575.208 518.751 576.384 518.829C577.559 518.907 579.014 519.041 581.141 519.108C583.268 519.175 586.066 519.175 587.947 519.052C589.828 518.93 590.79 518.684 590.813 518.963C590.835 519.242 589.917 520.044 588.675 520.635C587.432 521.226 585.865 521.605 584.723 522.007C583.581 522.408 582.865 522.832 582.462 523.445C582.059 524.058 581.969 524.861 582.059 525.106C582.149 525.351 582.417 525.039 583.134 524.783C583.85 524.526 585.014 524.326 586.481 524.058C587.947 523.79 589.716 523.456 591.328 522.609C592.939 521.761 594.395 520.401 595.693 519.621C596.992 518.84 598.134 518.64 599.287 518.573C600.44 518.506 601.604 518.573 602.533 518.773C603.462 518.974 604.156 519.309 604.581 519.776C605.007 520.245 605.164 520.847 605.365 520.824C605.567 520.802 605.813 520.156 606.048 519.42C606.283 518.684 606.507 517.859 606.35 517.212C606.194 516.566 605.656 516.097 604.839 515.863C604.022 515.629 602.925 515.629 601.828 515.651C600.731 515.674 599.634 515.718 599.041 515.317C598.447 514.916 598.358 514.068 599.029 512.63C599.701 511.192 601.134 509.163 602.896 506.702C604.11 505.007 605.48 503.107 606.672 501.459C607.098 501.405 607.533 501.31 607.973 501.17C610.346 500.412 612.887 498.305 614.678 497.083C616.468 495.861 617.508 495.523 618.341 495.523C618.696 495.523 619.014 495.584 619.458 495.674C622.665 497.402 625.497 498.987 627.818 499.84C629.594 500.492 631.07 500.716 632.322 500.64C632.868 501.938 633.428 503.459 633.944 504.976C634.873 507.709 635.66 510.432 635.514 512.048C635.368 513.665 634.288 514.175 632.972 514.54C631.656 514.903 630.103 515.121 628.069 515.198C626.034 515.275 623.517 515.212 621.767 515.234C620.016 515.256 619.032 515.365 618.234 515.605C617.436 515.844 616.823 516.214 616.441 516.65C616.058 517.086 615.905 517.587 615.873 518.11C615.84 518.633 615.927 519.177 616.091 519.177C616.255 519.177 616.495 518.632 617.053 518.371C617.611 518.11 618.486 518.131 619.634 518.208C620.782 518.284 622.203 518.415 624.288 518.417C626.373 518.42 629.122 518.294 630.959 518.174C632.796 518.055 633.721 517.941 633.683 518.241C633.645 518.542 632.642 519.257 631.429 519.834C630.215 520.411 628.79 520.851 627.727 521.277C626.665 521.703 625.965 522.117 625.571 522.716C625.178 523.316 625.09 524.099 625.178 524.339C625.265 524.579 625.528 524.274 626.228 524.023C626.927 523.773 628.064 523.577 629.472 523.232C630.878 522.887 632.555 522.393 634.13 521.566C635.704 520.738 637.177 519.576 638.383 518.851C639.589 518.125 640.529 517.837 641.719 517.689C642.909 517.541 644.348 517.535 645.343 517.778C646.339 518.02 646.889 518.512 647.241 519.051C647.594 519.591 647.747 520.179 647.943 520.157C648.14 520.135 648.381 519.504 648.554 518.842C648.727 518.181 648.833 517.489 648.679 516.857C648.526 516.226 648.114 515.654 647.393 515.225C646.671 514.796 645.639 514.509 644.67 514.315C643.7 514.121 642.792 514.02 642.295 513.555C641.797 513.09 641.71 512.263 640.585 509.037C639.63 506.299 637.928 501.833 637.398 497.961C638.312 496.904 638.971 495.706 639.415 494.704C640.087 493.188 640.266 492.117 642.027 490.824C643.788 489.531 647.13 488.015 649.593 485.517C652.056 483.02 653.639 479.542 654.833 475.885C656.027 472.228 656.833 468.393 657.236 465.494C657.639 462.596 657.639 460.633 658.983 457.69C660.326 454.747 663.012 450.823 665.072 446.631C667.132 442.439 668.565 437.979 669.594 433.609C670.624 429.239 671.251 424.958 671.161 420.944C671.072 416.931 670.266 413.185 668.206 410.331C666.147 407.477 662.834 405.514 660.102 406.317C657.371 407.12 655.221 410.687 652.445 414.523C649.669 418.358 646.266 422.461 642.46 425.716C638.654 428.971 634.445 431.379 630.192 432.227C625.938 433.074 621.64 432.361 617.341 432.45C613.043 432.539 608.744 433.431 605.207 433.565C601.67 433.699 598.893 433.074 596.386 431.736C593.879 430.398 591.64 428.347 590.073 425.092C588.505 421.836 587.61 417.377 585.326 413.765C581.64 407.933 578.35 406.758 574.956 404.911C574.135 404.464 574.759 403.678 575.205 403.21C575.65 402.742 576.078 402.378 576.348 401.75C576.618 401.122 576.729 400.23 576.646 399.427C576.562 398.625 576.282 397.911 575.778 397.298C575.274 396.685 574.547 396.172 573.696 395.932C572.845 395.693 571.871 395.726 570.976 396.077C570.08 396.428 569.263 397.097 568.754 397.343C568.245 397.588 568.043 397.41 567.909 397.087C567.775 396.763 567.707 396.295 567.293 395.849C566.879 395.403 566.118 394.979 565.379 395.03C564.64 395.08 563.924 395.604 563.364 396.367C562.804 397.131 562.401 398.134 561.931 398.614C561.461 399.093 560.924 399.049 560.498 398.792C560.073 398.536 559.759 398.068 559.244 397.923C558.73 397.778 558.013 397.956 557.453 398.502C556.894 399.049 556.491 399.963 556.379 401C556.267 402.036 556.446 403.196 556.043 403.765C555.64 404.333 554.655 404.311 553.95 404.567C553.244 404.824 552.819 405.359 552.506 406.095C552.192 406.831 551.991 407.767 552.069 408.871C552.147 409.975 552.506 411.246 552.962 411.924C553.419 412.603 553.974 412.689 554.747 412.422L554.769 412.414C553.99 413.596 553.299 414.588 552.864 415.348C552.416 416.128 552.237 416.663 552.27 417.199C552.304 417.734 552.549 418.268 553.277 418.224Z" fill="#F9FAFB" stroke="#D1D5DB" stroke-width="3" stroke-miterlimit="22.9256" stroke-linecap="round" stroke-linejoin="round"/>
<path fill-rule="evenodd" clip-rule="evenodd" d="M203.723 418.224C202.996 418.179 201.787 417.555 200.589 417.164C200.138 417.017 199.688 416.903 199.223 416.824C198.8 417.015 198.353 417.182 198.105 417.562C197.846 417.956 197.802 418.58 197.958 419.249C198.115 419.918 198.473 420.632 198.764 421.234C199.055 421.836 199.279 422.327 199.369 423.107C199.458 423.887 199.414 424.957 199.122 425.805C198.831 426.652 198.294 427.276 197.578 427.689C196.861 428.101 195.966 428.302 195.092 428.146C194.218 427.99 193.366 427.477 192.777 426.894C192.521 426.641 192.315 426.373 192.084 426.095C192.342 426.609 192.617 427.166 192.899 427.778C194.063 430.309 195.339 433.787 196.2 438.693C197.062 443.598 197.51 449.931 196.211 456.397C194.913 462.863 191.868 469.463 186.047 474.324C180.791 478.714 173.27 481.685 166.255 484.157C165.734 484.432 165.126 484.754 164.548 485.186C163.446 486.007 162.45 487.223 161.414 489.191C160.378 491.159 159.304 493.879 158.363 495.931C157.65 497.487 157.014 498.657 156.092 499.563C156.236 500.123 156.462 500.793 156.849 501.651C157.689 503.513 159.285 506.26 160.721 508.38C162.157 510.501 163.434 511.995 164.441 512.943C165.449 513.89 166.187 514.292 167.351 514.604C168.516 514.916 170.105 515.139 172.154 515.306C174.202 515.473 176.71 515.585 178.467 515.696C180.225 515.808 181.232 515.919 182.049 516.165C182.867 516.41 183.493 516.789 183.885 517.235C184.277 517.681 184.434 518.194 184.467 518.729C184.501 519.264 184.411 519.822 184.243 519.822C184.075 519.822 183.829 519.264 183.258 518.996C182.687 518.729 181.792 518.751 180.616 518.829C179.441 518.907 177.986 519.041 175.859 519.108C173.732 519.175 170.934 519.175 169.053 519.052C167.172 518.93 166.21 518.684 166.187 518.963C166.165 519.242 167.083 520.044 168.325 520.635C169.568 521.226 171.135 521.605 172.277 522.007C173.419 522.408 174.135 522.832 174.538 523.445C174.941 524.058 175.031 524.861 174.941 525.106C174.851 525.351 174.583 525.039 173.866 524.783C173.15 524.526 171.986 524.326 170.519 524.058C169.053 523.79 167.284 523.456 165.672 522.609C164.06 521.761 162.605 520.401 161.307 519.621C160.008 518.84 158.866 518.64 157.713 518.573C156.56 518.506 155.396 518.573 154.467 518.773C153.538 518.974 152.844 519.309 152.419 519.776C151.993 520.245 151.836 520.847 151.635 520.824C151.433 520.802 151.187 520.156 150.952 519.42C150.717 518.684 150.493 517.859 150.65 517.212C150.806 516.566 151.344 516.097 152.161 515.863C152.978 515.629 154.075 515.629 155.172 515.651C156.269 515.674 157.366 515.718 157.959 515.317C158.553 514.916 158.642 514.068 157.97 512.63C157.299 511.192 155.866 509.163 154.104 506.702C152.89 505.007 151.52 503.107 150.328 501.459C149.902 501.405 149.467 501.31 149.027 501.17C146.654 500.412 144.113 498.305 142.322 497.083C140.532 495.861 139.492 495.523 138.659 495.523C138.304 495.523 137.986 495.584 137.542 495.674C134.335 497.402 131.503 498.987 129.182 499.84C127.406 500.492 125.93 500.716 124.678 500.64C124.132 501.938 123.572 503.459 123.056 504.976C122.127 507.709 121.34 510.432 121.486 512.048C121.632 513.665 122.712 514.175 124.028 514.54C125.344 514.903 126.897 515.121 128.931 515.198C130.966 515.275 133.483 515.212 135.233 515.234C136.983 515.256 137.968 515.365 138.766 515.605C139.564 515.844 140.177 516.214 140.559 516.65C140.942 517.086 141.095 517.587 141.127 518.11C141.16 518.633 141.073 519.177 140.909 519.177C140.745 519.177 140.505 518.632 139.947 518.371C139.389 518.11 138.514 518.131 137.366 518.208C136.218 518.284 134.797 518.415 132.712 518.417C130.627 518.42 127.878 518.294 126.041 518.174C124.204 518.055 123.279 517.941 123.317 518.241C123.355 518.542 124.358 519.257 125.571 519.834C126.785 520.411 128.21 520.851 129.273 521.277C130.335 521.703 131.035 522.117 131.429 522.716C131.822 523.316 131.91 524.099 131.822 524.339C131.735 524.579 131.472 524.274 130.772 524.023C130.073 523.773 128.936 523.577 127.528 523.232C126.122 522.887 124.445 522.393 122.87 521.566C121.296 520.738 119.823 519.576 118.617 518.851C117.411 518.125 116.471 517.837 115.281 517.689C114.091 517.541 112.652 517.535 111.657 517.778C110.661 518.02 110.111 518.512 109.758 519.051C109.406 519.591 109.253 520.179 109.057 520.157C108.86 520.135 108.619 519.504 108.446 518.842C108.273 518.181 108.167 517.489 108.321 516.857C108.474 516.226 108.886 515.654 109.607 515.225C110.329 514.796 111.361 514.509 112.33 514.315C113.3 514.121 114.208 514.02 114.705 513.555C115.203 513.09 115.29 512.263 116.415 509.037C117.37 506.299 119.072 501.833 119.602 497.961C118.688 496.904 118.029 495.706 117.585 494.704C116.913 493.188 116.734 492.117 114.973 490.824C113.212 489.531 109.87 488.015 107.407 485.517C104.944 483.02 103.361 479.542 102.167 475.885C100.973 472.228 100.167 468.393 99.7636 465.494C99.3606 462.596 99.3606 460.633 98.0175 457.69C96.6741 454.747 93.9875 450.823 91.9279 446.631C89.8683 442.439 88.4353 437.979 87.4056 433.609C86.3757 429.239 85.7488 424.958 85.8386 420.944C85.9281 416.931 86.7339 413.185 88.7936 410.331C90.8534 407.477 94.1664 405.514 96.8978 406.317C99.6293 407.12 101.778 410.687 104.555 414.523C107.331 418.358 110.734 422.461 114.54 425.716C118.346 428.971 122.555 431.379 126.808 432.227C131.062 433.074 135.36 432.361 139.659 432.45C143.957 432.539 148.256 433.431 151.793 433.565C155.33 433.699 158.107 433.074 160.614 431.736C163.121 430.398 165.36 428.347 166.927 425.092C168.495 421.836 169.39 417.377 171.674 413.765C175.36 407.933 178.65 406.758 182.044 404.911C182.865 404.464 182.241 403.678 181.795 403.21C181.35 402.742 180.922 402.378 180.652 401.75C180.382 401.122 180.271 400.23 180.354 399.427C180.438 398.625 180.718 397.911 181.222 397.298C181.726 396.685 182.453 396.172 183.304 395.932C184.155 395.693 185.129 395.726 186.024 396.077C186.92 396.428 187.737 397.097 188.246 397.343C188.755 397.588 188.957 397.41 189.091 397.087C189.225 396.763 189.293 396.295 189.707 395.849C190.121 395.403 190.882 394.979 191.621 395.03C192.36 395.08 193.076 395.604 193.636 396.367C194.195 397.131 194.599 398.134 195.069 398.614C195.539 399.093 196.076 399.049 196.502 398.792C196.927 398.536 197.24 398.068 197.756 397.923C198.27 397.778 198.987 397.956 199.547 398.502C200.106 399.049 200.509 399.963 200.621 401C200.733 402.036 200.554 403.196 200.957 403.765C201.36 404.333 202.345 404.311 203.05 404.567C203.756 404.824 204.181 405.359 204.494 406.095C204.808 406.831 205.009 407.767 204.931 408.871C204.853 409.975 204.494 411.246 204.038 411.924C203.581 412.603 203.026 412.689 202.253 412.422L202.231 412.414C203.01 413.596 203.701 414.588 204.136 415.348C204.584 416.128 204.763 416.663 204.73 417.199C204.696 417.734 204.451 418.268 203.723 418.224Z" fill="#F9FAFB" stroke="#D1D5DB" stroke-width="3" stroke-miterlimit="22.9256" stroke-linecap="round" stroke-linejoin="round"/>
<path fill-rule="evenodd" clip-rule="evenodd" d="M131.277 418.224C132.004 418.179 133.213 417.555 134.411 417.164C134.862 417.017 135.312 416.903 135.777 416.824C136.2 417.015 136.647 417.182 136.895 417.562C137.154 417.956 137.198 418.58 137.042 419.249C136.885 419.918 136.527 420.632 136.236 421.234C135.945 421.836 135.721 422.327 135.631 423.107C135.542 423.887 135.586 424.957 135.878 425.805C136.169 426.652 136.706 427.276 137.422 427.689C138.139 428.101 139.034 428.302 139.908 428.146C140.782 427.99 141.634 427.477 142.223 426.894C142.479 426.641 142.685 426.373 142.916 426.095C142.658 426.609 142.383 427.166 142.101 427.778C140.937 430.309 139.661 433.787 138.8 438.693C137.938 443.598 137.49 449.931 138.789 456.397C140.087 462.863 143.132 469.463 148.953 474.324C154.209 478.714 161.73 481.685 168.745 484.157C169.266 484.432 169.874 484.754 170.452 485.186C171.554 486.007 172.55 487.223 173.586 489.191C174.622 491.159 175.696 493.879 176.637 495.931C177.35 497.487 177.986 498.657 178.908 499.563C178.764 500.123 178.538 500.793 178.151 501.651C177.311 503.513 175.715 506.26 174.279 508.38C172.843 510.501 171.566 511.995 170.559 512.943C169.551 513.89 168.813 514.292 167.649 514.604C166.484 514.916 164.895 515.139 162.846 515.306C160.798 515.473 158.29 515.585 156.533 515.696C154.775 515.808 153.768 515.919 152.951 516.165C152.133 516.41 151.507 516.789 151.115 517.235C150.723 517.681 150.566 518.194 150.533 518.729C150.499 519.264 150.589 519.822 150.757 519.822C150.925 519.822 151.171 519.264 151.742 518.996C152.313 518.729 153.208 518.751 154.384 518.829C155.559 518.907 157.014 519.041 159.141 519.108C161.268 519.175 164.066 519.175 165.947 519.052C167.828 518.93 168.79 518.684 168.813 518.963C168.835 519.242 167.917 520.044 166.675 520.635C165.432 521.226 163.865 521.605 162.723 522.007C161.581 522.408 160.865 522.832 160.462 523.445C160.059 524.058 159.969 524.861 160.059 525.106C160.149 525.351 160.417 525.039 161.134 524.783C161.85 524.526 163.014 524.326 164.481 524.058C165.947 523.79 167.716 523.456 169.328 522.609C170.94 521.761 172.395 520.401 173.693 519.621C174.992 518.84 176.134 518.64 177.287 518.573C178.44 518.506 179.604 518.573 180.533 518.773C181.462 518.974 182.156 519.309 182.581 519.776C183.007 520.245 183.164 520.847 183.365 520.824C183.567 520.802 183.813 520.156 184.048 519.42C184.283 518.684 184.507 517.859 184.35 517.212C184.194 516.566 183.656 516.097 182.839 515.863C182.022 515.629 180.925 515.629 179.828 515.651C178.731 515.674 177.634 515.718 177.041 515.317C176.447 514.916 176.358 514.068 177.03 512.63C177.701 511.192 179.134 509.163 180.896 506.702C182.11 505.007 183.48 503.107 184.672 501.459C185.098 501.405 185.533 501.31 185.973 501.17C188.346 500.412 190.887 498.305 192.678 497.083C194.468 495.861 195.508 495.523 196.341 495.523C196.696 495.523 197.014 495.584 197.458 495.674C200.665 497.402 203.497 498.987 205.818 499.84C207.594 500.492 209.07 500.716 210.322 500.64C210.868 501.938 211.428 503.459 211.944 504.976C212.873 507.709 213.66 510.432 213.514 512.048C213.368 513.665 212.288 514.175 210.972 514.54C209.656 514.903 208.103 515.121 206.069 515.198C204.034 515.275 201.517 515.212 199.767 515.234C198.017 515.256 197.032 515.365 196.234 515.605C195.436 515.844 194.823 516.214 194.441 516.65C194.058 517.086 193.905 517.587 193.873 518.11C193.84 518.633 193.927 519.177 194.091 519.177C194.255 519.177 194.495 518.632 195.053 518.371C195.611 518.11 196.486 518.131 197.634 518.208C198.782 518.284 200.203 518.415 202.288 518.417C204.373 518.42 207.122 518.294 208.959 518.174C210.796 518.055 211.721 517.941 211.683 518.241C211.645 518.542 210.642 519.257 209.429 519.834C208.215 520.411 206.79 520.851 205.727 521.277C204.665 521.703 203.965 522.117 203.571 522.716C203.178 523.316 203.09 524.099 203.178 524.339C203.265 524.579 203.528 524.274 204.228 524.023C204.927 523.773 206.064 523.577 207.472 523.232C208.878 522.887 210.555 522.393 212.13 521.566C213.704 520.738 215.177 519.576 216.383 518.851C217.589 518.125 218.529 517.837 219.719 517.689C220.909 517.541 222.348 517.535 223.343 517.778C224.339 518.02 224.889 518.512 225.242 519.051C225.594 519.591 225.747 520.179 225.943 520.157C226.14 520.135 226.381 519.504 226.554 518.842C226.727 518.181 226.833 517.489 226.679 516.857C226.526 516.226 226.114 515.654 225.393 515.225C224.671 514.796 223.639 514.509 222.67 514.315C221.7 514.121 220.792 514.02 220.295 513.555C219.797 513.09 219.71 512.263 218.585 509.037C217.63 506.299 215.928 501.833 215.398 497.961C216.312 496.904 216.971 495.706 217.415 494.704C218.087 493.188 218.266 492.117 220.027 490.824C221.788 489.531 225.13 488.015 227.593 485.517C230.056 483.02 231.639 479.542 232.833 475.885C234.027 472.228 234.833 468.393 235.236 465.494C235.639 462.596 235.639 460.633 236.983 457.69C238.326 454.747 241.012 450.823 243.072 446.631C245.132 442.439 246.565 437.979 247.594 433.609C248.624 429.239 249.251 424.958 249.161 420.944C249.072 416.931 248.266 413.185 246.206 410.331C244.147 407.477 240.834 405.514 238.102 406.317C235.371 407.12 233.222 410.687 230.445 414.523C227.669 418.358 224.266 422.461 220.46 425.716C216.654 428.971 212.445 431.379 208.192 432.227C203.938 433.074 199.64 432.361 195.341 432.45C191.043 432.539 186.744 433.431 183.207 433.565C179.67 433.699 176.893 433.074 174.386 431.736C171.879 430.398 169.64 428.347 168.073 425.092C166.505 421.836 165.61 417.377 163.326 413.765C159.64 407.933 156.35 406.758 152.956 404.911C152.135 404.464 152.759 403.678 153.205 403.21C153.65 402.742 154.078 402.378 154.348 401.75C154.618 401.122 154.729 400.23 154.646 399.427C154.562 398.625 154.282 397.911 153.778 397.298C153.274 396.685 152.547 396.172 151.696 395.932C150.845 395.693 149.871 395.726 148.976 396.077C148.08 396.428 147.263 397.097 146.754 397.343C146.245 397.588 146.043 397.41 145.909 397.087C145.775 396.763 145.707 396.295 145.293 395.849C144.879 395.403 144.118 394.979 143.379 395.03C142.64 395.08 141.924 395.604 141.364 396.367C140.805 397.131 140.401 398.134 139.931 398.614C139.461 399.093 138.924 399.049 138.498 398.792C138.073 398.536 137.76 398.068 137.244 397.923C136.73 397.778 136.013 397.956 135.453 398.502C134.894 399.049 134.491 399.963 134.379 401C134.267 402.036 134.446 403.196 134.043 403.765C133.64 404.333 132.655 404.311 131.95 404.567C131.244 404.824 130.819 405.359 130.506 406.095C130.192 406.831 129.991 407.767 130.069 408.871C130.147 409.975 130.506 411.246 130.962 411.924C131.419 412.603 131.974 412.689 132.747 412.422L132.769 412.414C131.99 413.596 131.299 414.588 130.864 415.348C130.416 416.128 130.237 416.663 130.27 417.199C130.304 417.734 130.549 418.268 131.277 418.224Z" fill="#F9FAFB" stroke="#D1D5DB" stroke-width="3" stroke-miterlimit="22.9256" stroke-linecap="round" stroke-linejoin="round"/>
</g>
<defs>
<clipPath id="clip0">
<rect width="870" height="520.139" fill="white" transform="matrix(-1 0 0 1 870 0)"/>
</clipPath>
</defs>
</svg>
