<svg width="500" height="299" viewBox="0 0 500 299" fill="none" xmlns="http://www.w3.org/2000/svg">
<g clip-path="url(#clip0)">
<path d="M117.188 295.619C123.59 290.208 127.478 281.662 126.458 273.341C125.438 265.021 119.123 257.372 110.93 255.605C102.738 253.838 93.3993 258.729 90.911 266.734C89.5416 251.301 87.9636 235.222 79.7605 222.08C72.3329 210.18 59.4681 201.665 45.5256 200.142C31.5831 198.619 16.9034 204.372 8.20795 215.379C-0.487488 226.386 -2.61655 242.389 3.47352 255.026C7.95986 264.335 16.2252 271.263 24.8854 276.9C52.8692 294.96 86.4322 302.304 119.399 297.581L117.188 295.619Z" fill="#34D399"/>
<path d="M21.9955 204.691C33.4998 214.063 44.0538 224.546 53.5048 235.987C68.2956 253.83 80.2645 273.836 88.9945 295.308C89.6336 296.874 87.0907 297.556 86.4587 296.007C72.1749 261.111 49.3722 230.355 20.136 206.551C18.8231 205.481 20.6934 203.63 21.9955 204.691Z" fill="white"/>
<path d="M339.042 294.149C330.25 286.718 324.909 274.979 326.31 263.551C327.71 252.123 336.385 241.617 347.637 239.19C358.889 236.763 371.716 243.481 375.134 254.475C377.015 233.279 379.182 211.194 390.449 193.143C400.651 176.799 418.321 165.103 437.471 163.011C456.621 160.919 476.783 168.821 488.726 183.94C500.67 199.058 503.594 221.037 495.229 238.394C489.067 251.181 477.715 260.697 465.82 268.438C427.872 293.137 380.797 303.437 336.005 296.844" fill="#34D399"/>
<path d="M469.789 169.259C453.988 182.132 439.492 196.53 426.511 212.244C413.528 227.942 402.098 244.862 392.381 262.768C386.95 272.812 382.071 283.145 377.766 293.721C376.888 295.873 380.381 296.809 381.249 294.682C388.874 276.036 398.308 258.183 409.415 241.378C420.468 224.634 433.119 209.002 447.19 194.701C455.149 186.617 463.546 178.976 472.343 171.814C474.146 170.345 471.578 167.803 469.789 169.259L469.789 169.259Z" fill="white"/>
<path d="M141.092 298.346H350.862V83.0654C350.862 37.2629 313.608 0 267.816 0H224.138C178.346 0 141.092 37.2629 141.092 83.0654V298.346Z" fill="#F2F2F2"/>
<path d="M184.77 298.345H350.862V83.0654C350.908 65.5149 345.352 48.408 335.002 34.2354C334.621 33.7153 334.24 33.2019 333.848 32.6941C328.842 26.1271 322.885 20.3436 316.173 15.5346C315.794 15.2587 315.413 14.9876 315.027 14.7164C309.411 10.829 303.336 7.65105 296.94 5.255C296.56 5.11101 296.173 4.96673 295.786 4.82835C290.002 2.76354 284.005 1.34916 277.908 0.611319C277.53 0.559669 277.142 0.519252 276.754 0.478835C270.812 -0.156641 264.819 -0.156641 258.877 0.478835C258.49 0.519252 258.102 0.559664 257.72 0.611872C251.624 1.34976 245.629 2.76397 239.846 4.82838C239.459 4.96676 239.072 5.11103 238.691 5.2553C232.374 7.62112 226.37 10.7516 220.814 14.5769C220.428 14.8422 220.042 15.1133 219.661 15.3845C215.899 18.0706 212.365 21.0631 209.096 24.3314C206.474 26.9529 204.031 29.7473 201.783 32.6958C201.392 33.2019 201.011 33.7153 200.63 34.2346C190.281 48.4073 184.724 65.5145 184.77 83.0654V298.345Z" fill="#7C2D12"/>
<path d="M198.276 202.059C193.197 202.059 189.08 197.941 189.08 192.861C189.08 187.781 193.197 183.664 198.276 183.664C203.354 183.664 207.471 187.781 207.471 192.861C207.471 197.941 203.354 202.059 198.276 202.059Z" fill="white"/>
<path d="M158.276 291.897H165.322L168.675 264.714L158.275 264.715L158.276 291.897Z" fill="#FFB8B8"/>
<path d="M170.355 289.884H156.767V298.441H178.911C178.911 297.318 178.69 296.205 178.26 295.166C177.83 294.128 177.2 293.185 176.405 292.39C175.611 291.596 174.668 290.965 173.63 290.535C172.592 290.105 171.479 289.884 170.355 289.884Z" fill="#2F2E41"/>
<path d="M123.219 291.897H130.265L133.617 264.714L123.218 264.715L123.219 291.897Z" fill="#FFB8B8"/>
<path d="M135.298 289.884H121.709V298.441H143.854C143.854 297.318 143.632 296.205 143.202 295.166C142.772 294.128 142.142 293.185 141.348 292.39C140.553 291.596 139.61 290.965 138.572 290.535C137.534 290.105 136.421 289.884 135.298 289.884Z" fill="#2F2E41"/>
<path d="M193.622 194.683C194.129 193.936 194.466 193.087 194.609 192.196C194.752 191.304 194.699 190.392 194.452 189.524C194.204 188.656 193.77 187.852 193.179 187.17C192.588 186.488 191.854 185.944 191.03 185.576L167.078 119.545L155.292 125.978L182.64 189.08C182.114 190.506 182.129 192.075 182.682 193.491C183.236 194.906 184.289 196.07 185.643 196.76C186.996 197.451 188.556 197.621 190.027 197.238C191.498 196.855 192.777 195.946 193.622 194.683Z" fill="#FFB8B8"/>
<path d="M126.818 207.091C127.601 206.642 128.276 206.026 128.796 205.288C129.315 204.55 129.667 203.707 129.825 202.818C129.984 201.929 129.946 201.016 129.713 200.144C129.481 199.272 129.06 198.461 128.481 197.769L135.901 127.919L122.488 128.532L119.405 197.238C118.307 198.289 117.632 199.706 117.509 201.221C117.386 202.736 117.823 204.244 118.736 205.458C119.65 206.673 120.978 207.509 122.467 207.81C123.957 208.111 125.505 207.855 126.818 207.091Z" fill="#FFB8B8"/>
<path d="M148.215 107.314C140.419 107.314 134.1 100.993 134.1 93.1956C134.1 85.398 140.419 79.0768 148.215 79.0768C156.011 79.0768 162.331 85.398 162.331 93.1956C162.331 100.993 156.011 107.314 148.215 107.314Z" fill="#FFB8B8"/>
<path d="M136.753 155.673L137.904 129.264C138.778 124.299 135.937 119.606 131.567 118.839C127.196 118.075 122.928 121.518 122.051 126.519L117.721 151.196L136.753 155.673Z" fill="#FEF3C7"/>
<path d="M126.908 191.205H169.464L169.413 190.874C169.336 190.378 161.828 141.184 167.366 125.09C167.921 123.509 167.872 121.778 167.228 120.23C166.585 118.682 165.391 117.427 163.878 116.707H163.877C155.963 112.979 140.77 108.388 127.946 119.529C126.059 121.196 124.586 123.278 123.642 125.612C122.699 127.947 122.311 130.468 122.51 132.978L126.908 191.205Z" fill="#D00000"/>
<path d="M161.29 148.455L180.449 144.567L171.469 123.28C170.931 121.219 169.598 119.454 167.762 118.374C165.926 117.294 163.736 116.987 161.674 117.519C159.611 118.052 157.844 119.381 156.76 121.215C155.676 123.049 155.363 125.238 155.891 127.303L161.29 148.455Z" fill="#FEF3C7"/>
<path d="M128.324 188.043C121.477 214.128 120.73 247.292 122.577 283.468L131.772 282.318L148.439 213.336L157.634 283.468L167.979 282.893C171.07 244.936 174.079 212.35 169.129 190.917L128.324 188.043Z" fill="#03071E"/>
<path d="M138.914 104.107C141.548 106.913 146.438 105.407 146.781 101.574C146.808 101.276 146.806 100.977 146.775 100.679C146.598 98.9815 145.617 97.44 145.852 95.6474C145.906 95.2012 146.072 94.776 146.335 94.4121C148.434 91.6015 153.359 95.6692 155.34 93.1248C156.554 91.5647 155.127 89.1083 156.059 87.3646C157.289 85.0631 160.932 86.1984 163.216 84.938C165.758 83.5357 165.606 79.635 163.933 77.2623C161.892 74.3688 158.314 72.8248 154.781 72.6022C151.248 72.3797 147.739 73.335 144.441 74.6208C140.693 76.0817 136.977 78.1006 134.67 81.3968C131.866 85.4053 131.596 90.7944 132.998 95.4815C133.852 98.3328 136.764 101.816 138.914 104.107Z" fill="#2F2E41"/>
<path d="M230.46 235.975H305.172C306.156 235.98 307.102 235.595 307.802 234.903C308.503 234.212 308.9 233.271 308.908 232.287V65.4838C308.9 64.4997 308.503 63.5587 307.802 62.8673C307.102 62.176 306.156 61.7907 305.172 61.796H230.46C229.476 61.7907 228.53 62.176 227.83 62.8673C227.129 63.5587 226.732 64.4997 226.724 65.4838V232.287C226.732 233.271 227.129 234.212 227.83 234.903C228.53 235.595 229.476 235.98 230.46 235.975Z" fill="white"/>
<path d="M226.724 115.768H308.908V116.918H226.724V115.768Z" fill="#9A3412"/>
<path d="M226.437 181.364H308.621V182.514H226.437V181.364Z" fill="#9A3412"/>
<path d="M281.896 61.796H283.046V236.549H281.896V61.796Z" fill="#9A3412"/>
<path d="M253.161 61.796H254.31V236.549H253.161V61.796Z" fill="#9A3412"/>
<path fill-rule="evenodd" clip-rule="evenodd" d="M317.975 240.414C318.393 240.389 319.088 240.03 319.776 239.806C320.036 239.721 320.294 239.656 320.562 239.61C320.805 239.72 321.061 239.816 321.204 240.034C321.353 240.261 321.378 240.62 321.288 241.004C321.198 241.389 320.992 241.799 320.825 242.145C320.658 242.491 320.529 242.773 320.478 243.222C320.426 243.67 320.452 244.285 320.619 244.773C320.787 245.26 321.095 245.618 321.507 245.856C321.919 246.093 322.433 246.208 322.936 246.118C323.438 246.029 323.928 245.734 324.266 245.399C324.413 245.253 324.532 245.099 324.664 244.939C324.516 245.235 324.358 245.555 324.196 245.907C323.527 247.362 322.794 249.361 322.299 252.181C321.803 255.001 321.546 258.641 322.292 262.358C323.038 266.075 324.788 269.869 328.134 272.664C331.155 275.187 335.477 276.895 339.509 278.316C339.808 278.474 340.157 278.659 340.49 278.907C341.123 279.379 341.696 280.079 342.291 281.21C342.886 282.341 343.504 283.905 344.044 285.084C344.454 285.979 344.819 286.652 345.35 287.172C345.267 287.494 345.137 287.879 344.914 288.372C344.432 289.443 343.514 291.022 342.689 292.241C341.863 293.46 341.13 294.319 340.551 294.863C339.972 295.408 339.547 295.639 338.878 295.818C338.209 295.998 337.296 296.126 336.119 296.222C334.941 296.318 333.5 296.382 332.49 296.446C331.48 296.51 330.901 296.575 330.431 296.716C329.962 296.857 329.602 297.075 329.376 297.331C329.151 297.587 329.061 297.882 329.042 298.19C329.023 298.497 329.074 298.818 329.171 298.818C329.267 298.818 329.409 298.497 329.737 298.343C330.065 298.19 330.579 298.202 331.255 298.247C331.93 298.292 332.767 298.369 333.989 298.408C335.211 298.446 336.82 298.446 337.901 298.375C338.981 298.305 339.535 298.164 339.547 298.324C339.56 298.485 339.033 298.946 338.319 299.286C337.605 299.625 336.704 299.843 336.048 300.074C335.392 300.305 334.98 300.548 334.748 300.901C334.517 301.253 334.465 301.714 334.517 301.856C334.568 301.996 334.723 301.817 335.134 301.67C335.546 301.522 336.215 301.407 337.058 301.253C337.901 301.099 338.917 300.907 339.843 300.42C340.77 299.933 341.606 299.151 342.352 298.702C343.099 298.254 343.755 298.138 344.418 298.1C345.08 298.061 345.749 298.1 346.283 298.215C346.817 298.33 347.216 298.523 347.461 298.792C347.705 299.061 347.795 299.407 347.911 299.394C348.027 299.382 348.168 299.01 348.304 298.587C348.439 298.164 348.567 297.69 348.477 297.318C348.387 296.946 348.078 296.677 347.609 296.542C347.139 296.408 346.509 296.408 345.878 296.421C345.248 296.433 344.617 296.459 344.276 296.228C343.935 295.998 343.884 295.511 344.27 294.684C344.656 293.857 345.479 292.691 346.492 291.276C347.189 290.302 347.977 289.21 348.662 288.262C348.907 288.231 349.157 288.177 349.41 288.096C350.774 287.66 352.234 286.449 353.263 285.746C354.292 285.044 354.89 284.85 355.369 284.85C355.573 284.85 355.755 284.885 356.011 284.937C357.853 285.93 359.481 286.841 360.815 287.331C361.835 287.706 362.684 287.835 363.403 287.791C363.717 288.537 364.039 289.412 364.335 290.284C364.869 291.855 365.322 293.42 365.238 294.349C365.154 295.279 364.533 295.572 363.777 295.781C363.021 295.991 362.128 296.116 360.959 296.16C359.79 296.204 358.343 296.168 357.337 296.18C356.331 296.194 355.766 296.256 355.307 296.394C354.848 296.531 354.496 296.744 354.276 296.995C354.056 297.245 353.968 297.533 353.95 297.834C353.931 298.134 353.981 298.447 354.075 298.447C354.17 298.447 354.308 298.134 354.628 297.984C354.949 297.834 355.451 297.846 356.111 297.89C356.771 297.934 357.588 298.009 358.786 298.01C359.985 298.012 361.564 297.94 362.62 297.871C363.676 297.802 364.208 297.737 364.186 297.909C364.164 298.082 363.587 298.493 362.89 298.825C362.192 299.157 361.373 299.409 360.763 299.654C360.152 299.899 359.75 300.137 359.524 300.482C359.298 300.826 359.247 301.277 359.298 301.415C359.348 301.552 359.499 301.377 359.901 301.233C360.303 301.089 360.957 300.976 361.765 300.778C362.574 300.58 363.537 300.296 364.442 299.82C365.347 299.344 366.193 298.677 366.887 298.26C367.58 297.843 368.12 297.677 368.804 297.592C369.488 297.507 370.315 297.504 370.887 297.643C371.459 297.782 371.776 298.065 371.978 298.375C372.18 298.685 372.268 299.023 372.381 299.011C372.494 298.998 372.633 298.635 372.732 298.255C372.832 297.874 372.892 297.477 372.804 297.114C372.716 296.751 372.48 296.422 372.065 296.175C371.65 295.929 371.057 295.764 370.5 295.652C369.942 295.541 369.421 295.482 369.135 295.215C368.849 294.948 368.799 294.473 368.152 292.618C367.603 291.044 366.625 288.477 366.321 286.252C366.846 285.644 367.225 284.955 367.48 284.379C367.866 283.507 367.969 282.892 368.981 282.149C369.993 281.405 371.914 280.534 373.329 279.098C374.745 277.663 375.654 275.663 376.341 273.561C377.027 271.459 377.49 269.254 377.722 267.588C377.954 265.922 377.954 264.794 378.726 263.102C379.498 261.41 381.042 259.154 382.225 256.744C383.409 254.335 384.233 251.771 384.824 249.259C385.416 246.747 385.777 244.286 385.725 241.979C385.673 239.671 385.21 237.518 384.027 235.877C382.843 234.237 380.939 233.109 379.369 233.57C377.799 234.032 376.564 236.082 374.968 238.287C373.373 240.492 371.417 242.85 369.23 244.722C367.043 246.593 364.624 247.977 362.179 248.464C359.735 248.951 357.264 248.541 354.794 248.592C352.323 248.644 349.853 249.156 347.82 249.233C345.787 249.31 344.192 248.951 342.751 248.182C341.309 247.413 340.023 246.234 339.122 244.363C338.221 242.491 337.707 239.928 336.394 237.851C334.276 234.499 332.385 233.823 330.435 232.762C329.962 232.505 330.321 232.053 330.577 231.784C330.834 231.515 331.079 231.306 331.234 230.945C331.389 230.584 331.454 230.071 331.405 229.61C331.357 229.148 331.196 228.738 330.907 228.386C330.617 228.033 330.199 227.738 329.71 227.6C329.221 227.463 328.662 227.482 328.147 227.684C327.632 227.886 327.163 228.27 326.87 228.411C326.577 228.552 326.462 228.45 326.384 228.264C326.307 228.078 326.269 227.809 326.031 227.553C325.793 227.296 325.355 227.053 324.931 227.082C324.506 227.11 324.094 227.412 323.772 227.851C323.451 228.29 323.219 228.866 322.949 229.142C322.679 229.418 322.37 229.392 322.125 229.245C321.881 229.097 321.701 228.828 321.405 228.745C321.109 228.661 320.697 228.764 320.376 229.078C320.054 229.392 319.822 229.917 319.758 230.513C319.694 231.109 319.797 231.776 319.565 232.103C319.333 232.43 318.767 232.417 318.362 232.564C317.957 232.712 317.712 233.019 317.532 233.442C317.352 233.865 317.236 234.403 317.281 235.038C317.326 235.673 317.532 236.403 317.794 236.793C318.057 237.183 318.376 237.233 318.82 237.079L318.833 237.075C318.385 237.755 317.988 238.325 317.738 238.761C317.48 239.21 317.377 239.518 317.397 239.825C317.416 240.133 317.557 240.44 317.975 240.414Z" fill="#F9FAFB" stroke="#D1D5DB" stroke-width="3" stroke-miterlimit="22.9256" stroke-linecap="round" stroke-linejoin="round"/>
<path fill-rule="evenodd" clip-rule="evenodd" d="M117.082 240.414C116.664 240.389 115.969 240.03 115.281 239.806C115.022 239.721 114.763 239.656 114.496 239.61C114.253 239.72 113.996 239.816 113.853 240.034C113.705 240.261 113.679 240.62 113.769 241.004C113.859 241.389 114.065 241.799 114.232 242.145C114.4 242.491 114.528 242.773 114.58 243.222C114.631 243.67 114.606 244.285 114.438 244.773C114.271 245.26 113.962 245.618 113.551 245.856C113.139 246.093 112.624 246.208 112.122 246.118C111.62 246.029 111.13 245.734 110.792 245.399C110.644 245.253 110.526 245.099 110.393 244.939C110.542 245.235 110.7 245.555 110.861 245.907C111.53 247.362 112.264 249.361 112.759 252.181C113.254 255.001 113.512 258.641 112.765 262.358C112.019 266.075 110.269 269.869 106.924 272.664C103.903 275.187 99.5805 276.895 95.5491 278.316C95.2495 278.474 94.9003 278.659 94.5677 278.907C93.9346 279.379 93.362 280.079 92.7668 281.21C92.1717 282.341 91.554 283.905 91.0136 285.084C90.6037 285.979 90.2382 286.652 89.7081 287.172C89.791 287.494 89.9209 287.879 90.1433 288.372C90.6259 289.443 91.5431 291.022 92.3687 292.241C93.1941 293.46 93.9275 294.319 94.5065 294.863C95.0856 295.408 95.5102 295.639 96.1792 295.818C96.8483 295.998 97.7618 296.126 98.9391 296.222C100.116 296.318 101.558 296.382 102.568 296.446C103.578 296.51 104.157 296.575 104.626 296.716C105.096 296.857 105.456 297.075 105.681 297.331C105.906 297.587 105.996 297.882 106.016 298.19C106.035 298.497 105.984 298.818 105.887 298.818C105.791 298.818 105.649 298.497 105.321 298.343C104.993 298.19 104.478 298.202 103.803 298.247C103.127 298.292 102.291 298.369 101.068 298.408C99.8463 298.446 98.2379 298.446 97.157 298.375C96.0762 298.305 95.523 298.164 95.5102 298.324C95.4974 298.485 96.0249 298.946 96.7389 299.286C97.453 299.625 98.3536 299.843 99.0098 300.074C99.666 300.305 100.078 300.548 100.309 300.901C100.541 301.253 100.592 301.714 100.541 301.856C100.49 301.996 100.335 301.817 99.9233 301.67C99.5117 301.522 98.8426 301.407 97.9998 301.253C97.1571 301.099 96.1406 300.907 95.2142 300.42C94.2878 299.933 93.4515 299.151 92.7051 298.702C91.959 298.254 91.3026 298.138 90.64 298.1C89.9773 298.061 89.3083 298.1 88.7742 298.215C88.2404 298.33 87.8416 298.523 87.597 298.792C87.3525 299.061 87.2625 299.407 87.1466 299.394C87.0308 299.382 86.8892 299.01 86.7541 298.587C86.6191 298.164 86.4903 297.69 86.5804 297.318C86.6704 296.946 86.9792 296.677 87.4489 296.542C87.9188 296.408 88.5491 296.408 89.1795 296.421C89.81 296.433 90.4406 296.459 90.7815 296.228C91.1224 295.998 91.1738 295.511 90.7878 294.684C90.4019 293.857 89.5784 292.691 88.5657 291.276C87.8682 290.302 87.0809 289.21 86.3956 288.262C86.1509 288.231 85.901 288.177 85.6477 288.096C84.2839 287.66 82.8237 286.449 81.7945 285.746C80.7655 285.044 80.1678 284.85 79.689 284.85C79.4851 284.85 79.3025 284.885 79.0471 284.937C77.2041 285.93 75.5763 286.841 74.2425 287.331C73.2221 287.706 72.3738 287.835 71.6542 287.791C71.3405 288.537 71.0188 289.412 70.7223 290.284C70.1882 291.855 69.7357 293.42 69.8195 294.349C69.9037 295.279 70.5244 295.572 71.2806 295.781C72.037 295.991 72.9294 296.116 74.0987 296.16C75.268 296.204 76.7144 296.168 77.7202 296.18C78.7263 296.194 79.2919 296.256 79.7507 296.394C80.2093 296.531 80.5614 296.744 80.7812 296.995C81.0012 297.245 81.0892 297.533 81.1079 297.834C81.1267 298.134 81.0766 298.447 80.9823 298.447C80.8881 298.447 80.7499 298.134 80.4294 297.984C80.1089 297.834 79.6061 297.846 78.9464 297.89C78.2865 297.934 77.4695 298.009 76.2712 298.01C75.0729 298.012 73.4934 297.94 72.4375 297.871C71.3817 297.802 70.8501 297.737 70.872 297.909C70.894 298.082 71.4702 298.493 72.1676 298.825C72.8653 299.157 73.6842 299.409 74.2948 299.654C74.9055 299.899 75.3077 300.137 75.5339 300.482C75.7599 300.826 75.8104 301.277 75.7599 301.415C75.7097 301.552 75.559 301.377 75.1566 301.233C74.7546 301.089 74.1011 300.976 73.2922 300.778C72.4838 300.58 71.5202 300.296 70.6153 299.82C69.7103 299.344 68.8641 298.677 68.1709 298.26C67.4777 297.843 66.9374 297.677 66.2536 297.592C65.5699 297.507 64.7428 297.504 64.1707 297.643C63.5987 297.782 63.2821 298.065 63.0798 298.375C62.8774 298.685 62.7895 299.023 62.6764 299.011C62.5632 298.998 62.425 298.635 62.3255 298.255C62.2261 297.874 62.1653 297.477 62.2535 297.114C62.3414 296.751 62.5781 296.422 62.9927 296.175C63.4075 295.929 64.0005 295.764 64.5578 295.652C65.1151 295.541 65.6367 295.482 65.9227 295.215C66.2087 294.948 66.2589 294.473 66.9055 292.618C67.4541 291.044 68.4326 288.477 68.7367 286.252C68.2116 285.644 67.8327 284.955 67.5775 284.379C67.1915 283.507 67.0886 282.892 66.0766 282.149C65.0648 281.405 63.1437 280.534 61.7283 279.098C60.313 277.663 59.4033 275.663 58.7169 273.561C58.0305 271.459 57.5673 269.254 57.3356 267.588C57.104 265.922 57.104 264.794 56.332 263.102C55.56 261.41 54.016 259.154 52.8323 256.744C51.6486 254.335 50.8251 251.771 50.2333 249.259C49.6414 246.747 49.2811 244.286 49.3327 241.979C49.3841 239.671 49.8473 237.518 51.031 235.877C52.2148 234.237 54.1188 233.109 55.6885 233.57C57.2584 234.032 58.4936 236.082 60.0891 238.287C61.6846 240.492 63.6402 242.85 65.8276 244.722C68.0149 246.593 70.4339 247.977 72.8785 248.464C75.3231 248.951 77.7935 248.541 80.2638 248.592C82.7342 248.644 85.2046 249.156 87.2376 249.233C89.2706 249.31 90.866 248.951 92.3071 248.182C93.7481 247.413 95.0348 246.234 95.9355 244.363C96.8362 242.491 97.3508 239.928 98.6632 237.851C100.782 234.499 102.673 233.823 104.623 232.762C105.095 232.505 104.736 232.053 104.48 231.784C104.224 231.515 103.978 231.306 103.823 230.945C103.668 230.584 103.604 230.071 103.652 229.61C103.7 229.148 103.861 228.738 104.151 228.386C104.44 228.033 104.858 227.738 105.347 227.6C105.836 227.463 106.396 227.482 106.911 227.684C107.425 227.886 107.895 228.27 108.188 228.411C108.48 228.552 108.596 228.45 108.673 228.264C108.75 228.078 108.789 227.809 109.027 227.553C109.265 227.296 109.702 227.053 110.127 227.082C110.552 227.11 110.964 227.412 111.285 227.851C111.607 228.29 111.838 228.866 112.109 229.142C112.379 229.418 112.688 229.392 112.932 229.245C113.177 229.097 113.357 228.828 113.653 228.745C113.949 228.661 114.36 228.764 114.682 229.078C115.004 229.392 115.235 229.917 115.3 230.513C115.364 231.109 115.261 231.776 115.493 232.103C115.724 232.43 116.29 232.417 116.696 232.564C117.101 232.712 117.345 233.019 117.526 233.442C117.706 233.865 117.821 234.403 117.776 235.038C117.732 235.673 117.526 236.403 117.263 236.793C117.001 237.183 116.682 237.233 116.238 237.079L116.225 237.075C116.673 237.755 117.07 238.325 117.32 238.761C117.577 239.21 117.68 239.518 117.661 239.825C117.642 240.133 117.501 240.44 117.082 240.414Z" fill="#F9FAFB" stroke="#D1D5DB" stroke-width="3" stroke-miterlimit="22.9256" stroke-linecap="round" stroke-linejoin="round"/>
<path fill-rule="evenodd" clip-rule="evenodd" d="M75.4464 240.414C75.8645 240.389 76.5593 240.03 77.2476 239.806C77.507 239.721 77.7655 239.656 78.0327 239.61C78.2757 239.72 78.5326 239.816 78.6755 240.034C78.8238 240.261 78.8495 240.62 78.7595 241.004C78.6694 241.389 78.4636 241.799 78.2964 242.145C78.1291 242.491 78.0004 242.773 77.9489 243.222C77.8974 243.67 77.9232 244.285 78.0905 244.773C78.2577 245.26 78.5664 245.618 78.9782 245.856C79.39 246.093 79.9045 246.208 80.4068 246.118C80.909 246.029 81.3987 245.734 81.7372 245.399C81.8844 245.253 82.0029 245.099 82.1355 244.939C81.9872 245.235 81.8291 245.555 81.6673 245.907C80.9984 247.362 80.2651 249.361 79.7698 252.181C79.2743 255.001 79.017 258.641 79.7634 262.358C80.5096 266.075 82.2595 269.869 85.6048 272.664C88.6259 275.187 92.9483 276.895 96.9797 278.316C97.2793 278.474 97.6286 278.659 97.9611 278.907C98.5942 279.379 99.1668 280.079 99.762 281.21C100.357 282.341 100.975 283.905 101.515 285.084C101.925 285.979 102.291 286.652 102.821 287.172C102.738 287.494 102.608 287.879 102.386 288.372C101.903 289.443 100.986 291.022 100.16 292.241C99.3347 293.46 98.6013 294.319 98.0223 294.863C97.4432 295.408 97.0186 295.639 96.3496 295.818C95.6805 295.998 94.767 296.126 93.5898 296.222C92.4124 296.318 90.9712 296.382 89.9612 296.446C88.9512 296.51 88.3722 296.575 87.9026 296.716C87.4329 296.857 87.0728 297.075 86.8476 297.331C86.6225 297.587 86.5323 297.882 86.5131 298.19C86.4938 298.497 86.5451 298.818 86.6417 298.818C86.7382 298.818 86.8797 298.497 87.2079 298.343C87.536 298.19 88.0506 298.202 88.7262 298.247C89.4016 298.292 90.238 298.369 91.4603 298.408C92.6826 298.446 94.291 298.446 95.3718 298.375C96.4526 298.305 97.0058 298.164 97.0186 298.324C97.0314 298.485 96.5039 298.946 95.7899 299.286C95.0758 299.625 94.1752 299.843 93.519 300.074C92.8628 300.305 92.4511 300.548 92.2194 300.901C91.9878 301.253 91.9364 301.714 91.9878 301.856C92.0393 301.996 92.1937 301.817 92.6055 301.67C93.0171 301.522 93.6862 301.407 94.529 301.253C95.3717 301.099 96.3882 300.907 97.3147 300.42C98.241 299.933 99.0773 299.151 99.8237 298.702C100.57 298.254 101.226 298.138 101.889 298.1C102.551 298.061 103.22 298.1 103.755 298.215C104.288 298.33 104.687 298.523 104.932 298.792C105.176 299.061 105.266 299.407 105.382 299.394C105.498 299.382 105.64 299.01 105.775 298.587C105.91 298.164 106.039 297.69 105.948 297.318C105.858 296.946 105.55 296.677 105.08 296.542C104.61 296.408 103.98 296.408 103.349 296.421C102.719 296.433 102.088 296.459 101.747 296.228C101.406 295.998 101.355 295.511 101.741 294.684C102.127 293.857 102.95 292.691 103.963 291.276C104.661 290.302 105.448 289.21 106.133 288.262C106.378 288.231 106.628 288.177 106.881 288.096C108.245 287.66 109.705 286.449 110.734 285.746C111.763 285.044 112.361 284.85 112.84 284.85C113.044 284.85 113.226 284.885 113.482 284.937C115.325 285.93 116.952 286.841 118.286 287.331C119.307 287.706 120.155 287.835 120.875 287.791C121.188 288.537 121.51 289.412 121.807 290.284C122.341 291.855 122.793 293.42 122.709 294.349C122.625 295.279 122.004 295.572 121.248 295.781C120.492 295.991 119.599 296.116 118.43 296.16C117.261 296.204 115.814 296.168 114.809 296.18C113.802 296.194 113.237 296.256 112.778 296.394C112.319 296.531 111.967 296.744 111.748 296.995C111.528 297.245 111.44 297.533 111.421 297.834C111.402 298.134 111.452 298.447 111.547 298.447C111.641 298.447 111.779 298.134 112.099 297.984C112.42 297.834 112.923 297.846 113.582 297.89C114.242 297.934 115.059 298.009 116.258 298.01C117.456 298.012 119.035 297.94 120.091 297.871C121.147 297.802 121.679 297.737 121.657 297.909C121.635 298.082 121.059 298.493 120.361 298.825C119.664 299.157 118.845 299.409 118.234 299.654C117.623 299.899 117.221 300.137 116.995 300.482C116.769 300.826 116.718 301.277 116.769 301.415C116.819 301.552 116.97 301.377 117.372 301.233C117.774 301.089 118.428 300.976 119.237 300.778C120.045 300.58 121.009 300.296 121.914 299.82C122.818 299.344 123.665 298.677 124.358 298.26C125.051 297.843 125.591 297.677 126.275 297.592C126.959 297.507 127.786 297.504 128.358 297.643C128.93 297.782 129.247 298.065 129.449 298.375C129.651 298.685 129.739 299.023 129.852 299.011C129.966 298.998 130.104 298.635 130.203 298.255C130.303 297.874 130.363 297.477 130.275 297.114C130.187 296.751 129.951 296.422 129.536 296.175C129.121 295.929 128.528 295.764 127.971 295.652C127.414 295.541 126.892 295.482 126.606 295.215C126.32 294.948 126.27 294.473 125.623 292.618C125.075 291.044 124.096 288.477 123.792 286.252C124.317 285.644 124.696 284.955 124.951 284.379C125.337 283.507 125.44 282.892 126.452 282.149C127.464 281.405 129.385 280.534 130.8 279.098C132.216 277.663 133.126 275.663 133.812 273.561C134.498 271.459 134.961 269.254 135.193 267.588C135.425 265.922 135.425 264.794 136.197 263.102C136.969 261.41 138.513 259.154 139.697 256.744C140.88 254.335 141.704 251.771 142.296 249.259C142.887 246.747 143.248 244.286 143.196 241.979C143.145 239.671 142.682 237.518 141.498 235.877C140.314 234.237 138.41 233.109 136.84 233.57C135.27 234.032 134.035 236.082 132.44 238.287C130.844 240.492 128.889 242.85 126.701 244.722C124.514 246.593 122.095 247.977 119.65 248.464C117.206 248.951 114.735 248.541 112.265 248.592C109.795 248.644 107.324 249.156 105.291 249.233C103.258 249.31 101.663 248.951 100.222 248.182C98.7807 247.413 97.494 246.234 96.5933 244.363C95.6926 242.491 95.178 239.928 93.8656 237.851C91.7468 234.499 89.856 233.823 87.9058 232.762C87.4336 232.505 87.7923 232.053 88.0486 231.784C88.3048 231.515 88.5505 231.306 88.7055 230.945C88.8605 230.584 88.9248 230.071 88.8766 229.61C88.8285 229.148 88.6676 228.738 88.378 228.386C88.0886 228.033 87.6704 227.738 87.1815 227.6C86.6926 227.463 86.1329 227.482 85.6183 227.684C85.1036 227.886 84.634 228.27 84.3413 228.411C84.0486 228.552 83.9328 228.45 83.8556 228.264C83.7784 228.078 83.7397 227.809 83.5018 227.553C83.2637 227.296 82.8263 227.053 82.4017 227.082C81.9771 227.11 81.5653 227.412 81.2437 227.851C80.922 228.29 80.6904 228.866 80.4201 229.142C80.15 229.418 79.8412 229.392 79.5966 229.245C79.3522 229.097 79.172 228.828 78.876 228.745C78.5801 228.661 78.1684 228.764 77.8467 229.078C77.525 229.392 77.2935 229.917 77.2291 230.513C77.1648 231.109 77.2677 231.776 77.0361 232.103C76.8044 232.43 76.2385 232.417 75.8332 232.564C75.4277 232.712 75.1834 233.019 75.0033 233.442C74.8231 233.865 74.7074 234.403 74.7524 235.038C74.7973 235.673 75.0032 236.403 75.2656 236.793C75.528 237.183 75.8472 237.233 76.2912 237.079L76.304 237.075C75.856 237.755 75.4593 238.325 75.2089 238.761C74.9516 239.21 74.8486 239.518 74.8679 239.825C74.8872 240.133 75.0283 240.44 75.4464 240.414Z" fill="#F9FAFB" stroke="#D1D5DB" stroke-width="3" stroke-miterlimit="22.9256" stroke-linecap="round" stroke-linejoin="round"/>
</g>
<defs>
<clipPath id="clip0">
<rect width="500" height="299" fill="white" transform="matrix(-1 0 0 1 500 0)"/>
</clipPath>
</defs>
</svg>
