<svg width="327" height="122" viewBox="0 0 327 122" fill="none" xmlns="http://www.w3.org/2000/svg">
<g clip-path="url(#clip0)">
<path fill-rule="evenodd" clip-rule="evenodd" d="M72.0714 45.4086C73.539 45.8068 74.8331 46.3009 76.0148 46.9206C78.2049 48.069 80.0083 49.6481 81.1678 51.5286C82.3271 53.4091 82.8424 55.5911 82.9285 56.5672C83.0143 57.5434 82.6707 57.3137 81.6545 56.9405C80.6382 56.5672 78.9493 56.0504 77.0169 55.6342C75.0845 55.2179 72.9088 54.9021 70.8047 54.7585C68.8853 54.6274 67.0254 54.6399 64.7032 54.8067C64.8244 54.9249 64.9463 55.0501 65.0652 55.1827C65.9527 56.1734 66.6681 57.5761 66.7253 59.6843C66.7824 61.7924 66.1814 64.6062 64.8072 66.9315C63.4333 69.2573 61.286 71.0945 58.9099 71.9702C56.5608 72.8359 53.9883 72.7615 51.5927 71.6503C51.1893 72.8658 50.952 74.073 50.923 75.2577C50.8657 77.5833 51.61 79.8227 52.2112 83.1029C52.8125 86.383 53.2705 90.704 53.2421 92.0318C53.2134 93.3597 52.6981 91.6946 51.2382 89.7637C49.7781 87.833 47.3732 85.6365 46.8578 85.4859C46.3426 85.3351 47.7167 87.2301 48.7902 89.132C49.8638 91.0343 50.6368 92.9434 51.2523 95.592C51.8679 98.2406 52.3259 101.628 52.2043 102.174C52.0825 102.719 51.3811 100.423 50.3648 98.5276C49.3485 96.6327 48.0173 95.1399 46.2351 94.1637C44.4529 93.1876 42.2201 92.7282 42.0199 92.8718C41.8194 93.0154 43.6515 93.7617 45.2045 95.3982C46.7575 97.0348 48.0314 99.5612 48.8402 101.729C49.6491 103.896 49.9925 105.705 49.7707 105.906C49.5489 106.107 48.7616 104.7 47.4805 103.251C46.1993 101.801 44.4244 100.308 41.8335 99.0373C39.2427 97.7669 35.8361 96.719 33.5316 95.5347C31.227 94.3504 30.0247 93.0295 29.7098 92.9722C29.395 92.9148 29.9676 94.1206 31.2558 95.6136C32.544 97.1064 34.5479 98.8865 36.609 100.064C38.6703 101.241 40.7886 101.815 39.615 101.643C38.4414 101.47 33.9753 100.552 29.7959 98.9153C25.6162 97.2787 21.7229 94.9246 19.4614 92.5899C17.1998 90.2551 16.57 87.9397 16.4268 87.9397C16.2837 87.9397 16.6272 90.255 17.5147 92.3887C18.4022 94.5227 19.8335 96.4748 20.9502 97.652C22.0667 98.8292 22.8681 99.231 22.0094 99.0875C21.1506 98.9439 18.6313 98.2549 15.7686 95.7571C12.9059 93.2592 9.69966 88.9527 8.39902 85.0194C7.09822 81.086 7.70308 77.526 7.67451 76.3488C7.64594 75.1716 6.98379 76.3776 6.56694 78.6457C6.14993 80.914 5.97821 84.2441 5.92092 86.3114C5.86363 88.3786 5.92092 89.1825 5.69191 89.0963C5.4629 89.0102 4.94759 88.034 4.34642 85.0194C3.74525 82.0049 3.05822 76.9519 3.48767 72.5591C3.91696 68.1663 5.4629 64.4339 5.26246 64.0034C5.06201 63.5727 3.11535 66.4437 1.88444 68.6831C0.653381 70.9226 0.138071 72.5305 0.0236424 72.4154C-0.0909394 72.3006 0.195362 70.4631 1.22598 66.9031C2.2566 63.343 4.03139 58.0602 5.86363 54.3566C7.69586 50.653 9.58508 48.5283 9.06992 48.4709C8.55476 48.4134 5.63462 50.4232 4.06011 51.5429C2.48561 52.6626 2.2566 52.8923 3.99576 50.861C5.73491 48.8296 9.44223 44.5375 13.2784 41.2358C17.1146 37.934 21.0793 35.6228 25.8385 33.7782C30.5976 31.9336 36.1515 30.5555 39.787 29.8663C41.4939 29.5428 42.778 29.3714 43.8853 29.3545C43.4947 28.1955 43.2865 27.0711 43.2366 25.7464C43.1651 23.837 43.4228 21.5115 44.21 19.9899C44.9973 18.4683 46.3141 17.7504 47.86 17.3341C49.4059 16.9177 51.1807 16.8029 52.4691 17.5063C53.7574 18.2096 54.5589 19.7314 55.2746 20.4491C55.9902 21.1667 56.6201 21.0806 57.851 21.0233C59.0821 20.9659 60.914 20.9372 62.0449 21.4684C63.1757 21.9995 63.6051 23.0904 63.7911 23.9948C63.9773 24.8991 63.92 25.617 63.9057 26.2485C63.8914 26.8803 63.92 27.4257 64.2206 27.756C64.5212 28.0861 65.0939 28.201 65.7092 28.3732C66.3245 28.5454 66.9832 28.7751 67.4983 29.2058C68.0136 29.6365 68.3858 30.2681 68.4145 31.1151C68.4431 31.9622 68.1282 33.0245 68.0566 33.7565C67.9851 34.4885 68.1568 34.8905 68.5289 35.1202C68.9011 35.3499 69.4737 35.4073 70.0749 35.6082C70.6759 35.8092 71.3058 36.1536 71.7208 36.6705C72.136 37.1873 72.3364 37.8763 72.3507 38.5798C72.3651 39.2831 72.1934 40.001 72.2935 40.4317C72.3937 40.8622 72.7659 41.0059 73.2382 41.3217C73.7105 41.6375 74.2831 42.1255 74.5692 42.7859C74.8555 43.4462 74.8555 44.2788 74.3895 44.744C73.9576 45.1755 73.1254 45.291 72.0714 45.4086Z" fill="#F59E0B" stroke="#F59E0B" stroke-width="2.9999" stroke-miterlimit="22.9256" stroke-linecap="round" stroke-linejoin="round"/>
<path fill-rule="evenodd" clip-rule="evenodd" d="M254.87 45.4086C253.402 45.8068 252.108 46.3009 250.926 46.9206C248.736 48.069 246.933 49.6481 245.773 51.5286C244.614 53.4091 244.099 55.5911 244.013 56.5672C243.927 57.5434 244.27 57.3137 245.287 56.9405C246.303 56.5672 247.992 56.0504 249.924 55.6342C251.857 55.2179 254.032 54.9021 256.136 54.7585C258.056 54.6274 259.916 54.6399 262.238 54.8067C262.117 54.9249 261.995 55.0501 261.876 55.1827C260.988 56.1734 260.273 57.5761 260.216 59.6843C260.159 61.7924 260.76 64.6062 262.134 66.9315C263.508 69.2573 265.655 71.0945 268.031 71.9702C270.38 72.8359 272.953 72.7615 275.348 71.6503C275.752 72.8658 275.989 74.073 276.018 75.2577C276.075 77.5833 275.331 79.8227 274.73 83.1029C274.129 86.383 273.671 90.704 273.699 92.0318C273.728 93.3597 274.243 91.6946 275.703 89.7637C277.163 87.833 279.568 85.6365 280.083 85.4859C280.598 85.3351 279.224 87.2301 278.151 89.132C277.077 91.0343 276.304 92.9434 275.689 95.592C275.073 98.2406 274.615 101.628 274.737 102.174C274.859 102.719 275.56 100.423 276.576 98.5276C277.593 96.6327 278.924 95.1399 280.706 94.1637C282.488 93.1876 284.721 92.7282 284.921 92.8718C285.122 93.0154 283.29 93.7617 281.737 95.3982C280.184 97.0348 278.91 99.5612 278.101 101.729C277.292 103.896 276.949 105.705 277.17 105.906C277.392 106.107 278.18 104.7 279.461 103.251C280.742 101.801 282.517 100.308 285.108 99.0373C287.698 97.7669 291.105 96.719 293.41 95.5347C295.714 94.3504 296.916 93.0295 297.231 92.9722C297.546 92.9148 296.974 94.1206 295.685 95.6136C294.397 97.1064 292.393 98.8865 290.332 100.064C288.271 101.241 286.152 101.815 287.326 101.643C288.5 101.47 292.966 100.552 297.145 98.9153C301.325 97.2787 305.218 94.9246 307.48 92.5899C309.741 90.2551 310.371 87.9397 310.514 87.9397C310.657 87.9397 310.314 90.255 309.426 92.3887C308.539 94.5227 307.108 96.4748 305.991 97.652C304.874 98.8292 304.073 99.231 304.932 99.0875C305.79 98.9439 308.31 98.2549 311.172 95.7571C314.035 93.2592 317.241 88.9527 318.542 85.0194C319.843 81.086 319.238 77.526 319.267 76.3488C319.295 75.1716 319.957 76.3776 320.374 78.6457C320.791 80.914 320.963 84.2441 321.02 86.3114C321.077 88.3786 321.02 89.1825 321.249 89.0963C321.478 89.0102 321.994 88.034 322.595 85.0194C323.196 82.0049 323.883 76.9519 323.453 72.5591C323.024 68.1663 321.478 64.4339 321.679 64.0034C321.879 63.5727 323.826 66.4437 325.057 68.6831C326.288 70.9226 326.803 72.5305 326.917 72.4154C327.032 72.3006 326.746 70.4631 325.715 66.9031C324.684 63.343 322.91 58.0602 321.077 54.3566C319.245 50.653 317.356 48.5283 317.871 48.4709C318.386 48.4134 321.306 50.4232 322.881 51.5429C324.455 52.6626 324.684 52.8923 322.945 50.861C321.206 48.8296 317.499 44.5375 313.663 41.2358C309.826 37.934 305.862 35.6228 301.103 33.7782C296.343 31.9336 290.79 30.5555 287.154 29.8663C285.447 29.5428 284.163 29.3714 283.056 29.3545C283.446 28.1955 283.655 27.0711 283.704 25.7464C283.776 23.837 283.518 21.5115 282.731 19.9899C281.944 18.4683 280.627 17.7504 279.081 17.3341C277.535 16.9177 275.76 16.8029 274.472 17.5063C273.184 18.2096 272.382 19.7314 271.666 20.4491C270.951 21.1667 270.321 21.0806 269.09 21.0233C267.859 20.9659 266.027 20.9372 264.896 21.4684C263.765 21.9995 263.336 23.0904 263.15 23.9948C262.964 24.8991 263.021 25.617 263.035 26.2485C263.05 26.8803 263.021 27.4257 262.72 27.756C262.42 28.0861 261.847 28.201 261.232 28.3732C260.617 28.5454 259.958 28.7751 259.443 29.2058C258.927 29.6365 258.555 30.2681 258.527 31.1151C258.498 31.9622 258.813 33.0245 258.884 33.7565C258.956 34.4885 258.784 34.8905 258.412 35.1202C258.04 35.3499 257.467 35.4073 256.866 35.6082C256.265 35.8092 255.635 36.1536 255.22 36.6705C254.805 37.1873 254.605 37.8763 254.59 38.5798C254.576 39.2831 254.748 40.001 254.648 40.4317C254.547 40.8622 254.175 41.0059 253.703 41.3217C253.231 41.6375 252.658 42.1255 252.372 42.7859C252.086 43.4462 252.086 44.2788 252.552 44.744C252.984 45.1755 253.816 45.291 254.87 45.4086Z" fill="#F59E0B" stroke="#F59E0B" stroke-width="2.9999" stroke-miterlimit="22.9256" stroke-linecap="round" stroke-linejoin="round"/>
<path d="M53.9261 64L56.8068 55.392H69.9318L72.8295 64H79.5795L67.2727 29.0909H59.4659L47.1761 64H53.9261ZM58.5114 50.3125L63.233 36.25H63.5057L68.2273 50.3125H58.5114ZM104.01 37.8182H97.4474L91.4134 57.267H91.1406L85.1236 37.8182H78.544L87.8679 64H94.6861L104.01 37.8182ZM108.28 64H114.45V37.8182H108.28V64ZM111.382 34.1023C113.342 34.1023 114.945 32.6023 114.945 30.7614C114.945 28.9034 113.342 27.4034 111.382 27.4034C109.405 27.4034 107.803 28.9034 107.803 30.7614C107.803 32.6023 109.405 34.1023 111.382 34.1023ZM132.216 64.5114C138.795 64.5114 142.989 60.608 143.432 55.0511H137.534C137.006 57.8636 134.977 59.483 132.267 59.483C128.415 59.483 125.926 56.2614 125.926 50.9091C125.926 45.625 128.466 42.4545 132.267 42.4545C135.233 42.4545 137.057 44.3636 137.534 46.8864H143.432C143.006 41.2102 138.574 37.4773 132.182 37.4773C124.511 37.4773 119.67 43.017 119.67 51.0114C119.67 58.9375 124.392 64.5114 132.216 64.5114ZM159.919 64.5114C167.589 64.5114 172.464 59.108 172.464 51.0114C172.464 42.8977 167.589 37.4773 159.919 37.4773C152.249 37.4773 147.374 42.8977 147.374 51.0114C147.374 59.108 152.249 64.5114 159.919 64.5114ZM159.953 59.5682C155.709 59.5682 153.629 55.7841 153.629 50.9943C153.629 46.2045 155.709 42.3693 159.953 42.3693C164.129 42.3693 166.209 46.2045 166.209 50.9943C166.209 55.7841 164.129 59.5682 159.953 59.5682ZM183.872 29.0909H177.702V64H183.872V29.0909ZM194.973 64L197.854 55.392H210.979L213.876 64H220.626L208.32 29.0909H200.513L188.223 64H194.973ZM199.558 50.3125L204.28 36.25H204.553L209.274 50.3125H199.558ZM224.952 73.8182H231.122V59.875H231.378C232.349 61.7841 234.378 64.4602 238.878 64.4602C245.048 64.4602 249.668 59.5682 249.668 50.9432C249.668 42.2159 244.912 37.4773 238.861 37.4773C234.241 37.4773 232.315 40.2557 231.378 42.1477H231.02V37.8182H224.952V73.8182ZM231.003 50.9091C231.003 45.8295 233.185 42.5398 237.156 42.5398C241.264 42.5398 243.378 46.0341 243.378 50.9091C243.378 55.8182 241.23 59.3977 237.156 59.3977C233.219 59.3977 231.003 55.9886 231.003 50.9091ZM254.952 73.8182H261.122V59.875H261.378C262.349 61.7841 264.378 64.4602 268.878 64.4602C275.048 64.4602 279.668 59.5682 279.668 50.9432C279.668 42.2159 274.912 37.4773 268.861 37.4773C264.241 37.4773 262.315 40.2557 261.378 42.1477H261.02V37.8182H254.952V73.8182ZM261.003 50.9091C261.003 45.8295 263.185 42.5398 267.156 42.5398C271.264 42.5398 273.378 46.0341 273.378 50.9091C273.378 55.8182 271.23 59.3977 267.156 59.3977C263.219 59.3977 261.003 55.9886 261.003 50.9091Z" fill="#9A3412"/>
</g>
<defs>
<clipPath id="clip0">
<rect width="327" height="122" fill="white"/>
</clipPath>
</defs>
</svg>
