<svg width="616" height="787" viewBox="0 0 616 787" fill="none" xmlns="http://www.w3.org/2000/svg">
<g clip-path="url(#clip0)">
<g filter="url(#filter0_d)">
<path fill-rule="evenodd" clip-rule="evenodd" d="M308 13C422.052 13 578 189.738 578 407.754C578 823.155 38 834.46 38 407.754C38 189.738 193.949 13 308 13Z" fill="#03071E"/>
</g>
<g filter="url(#filter1_dd)">
<path d="M213.938 277.609H226.594C261.094 277.609 281.672 289.281 288.328 312.625C290.578 320.312 291.703 329.125 291.703 339.062V469H213.938V277.609ZM110.156 339.062C110.156 318.344 114.891 303.156 124.359 293.5C134.766 282.906 151.734 277.609 175.266 277.609H187.922V469H110.156V339.062Z" fill="#FFBA08"/>
<path d="M213.938 277.609V276.609H212.938V277.609H213.938ZM288.328 312.625L287.366 312.899L287.368 312.906L288.328 312.625ZM291.703 469V470H292.703V469H291.703ZM213.938 469H212.938V470H213.938V469ZM124.359 293.5L123.646 292.799L123.645 292.8L124.359 293.5ZM187.922 277.609H188.922V276.609H187.922V277.609ZM187.922 469V470H188.922V469H187.922ZM110.156 469H109.156V470H110.156V469ZM213.938 278.609H226.594V276.609H213.938V278.609ZM226.594 278.609C243.745 278.609 257.324 281.513 267.409 287.233C277.463 292.936 284.108 301.472 287.366 312.899L289.29 312.351C285.892 300.434 278.92 291.463 268.396 285.493C257.903 279.542 243.943 276.609 226.594 276.609V278.609ZM287.368 312.906C289.586 320.483 290.703 329.198 290.703 339.062H292.703C292.703 329.052 291.57 320.142 289.288 312.344L287.368 312.906ZM290.703 339.062V469H292.703V339.062H290.703ZM291.703 468H213.938V470H291.703V468ZM214.938 469V277.609H212.938V469H214.938ZM111.156 339.062C111.156 318.469 115.865 303.591 125.073 294.2L123.645 292.8C113.916 302.722 109.156 318.218 109.156 339.062H111.156ZM125.073 294.201C135.206 283.885 151.851 278.609 175.266 278.609V276.609C151.618 276.609 134.325 281.928 123.646 292.799L125.073 294.201ZM175.266 278.609H187.922V276.609H175.266V278.609ZM186.922 277.609V469H188.922V277.609H186.922ZM187.922 468H110.156V470H187.922V468ZM111.156 469V339.062H109.156V469H111.156Z" fill="#FAA307"/>
</g>
<g filter="url(#filter2_dd)">
<path d="M413.234 337.234C413.234 316.234 418.578 301.094 429.266 291.812C440.234 282.344 457.812 277.609 482 277.609H490.578V378.719C490.578 422.312 478.109 450.25 453.172 462.531C444.453 466.844 434 469 421.812 469H413.234V337.234ZM380.047 469C356.516 469 338.984 460.797 327.453 444.391C316.766 429.203 311.422 407.312 311.422 378.719V277.609H320C344.188 277.609 361.766 282.344 372.734 291.812C383.422 301.094 388.766 316.234 388.766 337.234V469H380.047Z" fill="#FFBA08"/>
<path d="M429.266 291.812L428.612 291.056L428.61 291.057L429.266 291.812ZM490.578 277.609H491.578V276.609H490.578V277.609ZM453.172 462.531L452.73 461.634L452.729 461.635L453.172 462.531ZM413.234 469H412.234V470H413.234V469ZM327.453 444.391L328.271 443.816V443.815L327.453 444.391ZM311.422 277.609V276.609H310.422V277.609H311.422ZM372.734 291.812L373.39 291.057L373.388 291.056L372.734 291.812ZM388.766 469V470H389.766V469H388.766ZM414.234 337.234C414.234 316.382 419.541 301.582 429.921 292.568L428.61 291.057C417.615 300.605 412.234 316.087 412.234 337.234H414.234ZM429.919 292.569C440.619 283.333 457.904 278.609 482 278.609V276.609C457.721 276.609 439.85 281.354 428.612 291.056L429.919 292.569ZM482 278.609H490.578V276.609H482V278.609ZM489.578 277.609V378.719H491.578V277.609H489.578ZM489.578 378.719C489.578 422.169 477.155 449.605 452.73 461.634L453.614 463.428C479.064 450.895 491.578 422.456 491.578 378.719H489.578ZM452.729 461.635C444.178 465.864 433.884 468 421.812 468V470C434.116 470 444.728 467.823 453.615 463.428L452.729 461.635ZM421.812 468H413.234V470H421.812V468ZM414.234 469V337.234H412.234V469H414.234ZM380.047 468C356.777 468 339.581 459.907 328.271 443.816L326.635 444.966C338.388 461.687 356.255 470 380.047 470V468ZM328.271 443.815C317.75 428.865 312.422 407.21 312.422 378.719H310.422C310.422 407.415 315.781 429.542 326.635 444.966L328.271 443.815ZM312.422 378.719V277.609H310.422V378.719H312.422ZM311.422 278.609H320V276.609H311.422V278.609ZM320 278.609C344.096 278.609 361.381 283.333 372.081 292.569L373.388 291.056C362.15 281.354 344.279 276.609 320 276.609V278.609ZM372.079 292.568C382.459 301.582 387.766 316.382 387.766 337.234H389.766C389.766 316.087 384.385 300.605 373.39 291.057L372.079 292.568ZM387.766 337.234V469H389.766V337.234H387.766ZM388.766 468H380.047V470H388.766V468Z" fill="#FAA307"/>
</g>
</g>
<defs>
<filter id="filter0_d" x="-12" y="-12" width="640" height="810.558" filterUnits="userSpaceOnUse" color-interpolation-filters="sRGB">
<feFlood flood-opacity="0" result="BackgroundImageFix"/>
<feColorMatrix in="SourceAlpha" type="matrix" values="0 0 0 0 0 0 0 0 0 0 0 0 0 0 0 0 0 0 127 0"/>
<feOffset dy="25"/>
<feGaussianBlur stdDeviation="25"/>
<feColorMatrix type="matrix" values="0 0 0 0 0 0 0 0 0 0 0 0 0 0 0 0 0 0 0.25 0"/>
<feBlend mode="normal" in2="BackgroundImageFix" result="effect1_dropShadow"/>
<feBlend mode="normal" in="SourceGraphic" in2="effect1_dropShadow" result="shape"/>
</filter>
<filter id="filter1_dd" x="84.156" y="271.609" width="233.547" height="243.391" filterUnits="userSpaceOnUse" color-interpolation-filters="sRGB">
<feFlood flood-opacity="0" result="BackgroundImageFix"/>
<feColorMatrix in="SourceAlpha" type="matrix" values="0 0 0 0 0 0 0 0 0 0 0 0 0 0 0 0 0 0 127 0"/>
<feOffset dy="10"/>
<feGaussianBlur stdDeviation="5"/>
<feColorMatrix type="matrix" values="0 0 0 0 0 0 0 0 0 0 0 0 0 0 0 0 0 0 0.04 0"/>
<feBlend mode="normal" in2="BackgroundImageFix" result="effect1_dropShadow"/>
<feColorMatrix in="SourceAlpha" type="matrix" values="0 0 0 0 0 0 0 0 0 0 0 0 0 0 0 0 0 0 127 0"/>
<feOffset dy="20"/>
<feGaussianBlur stdDeviation="12.5"/>
<feColorMatrix type="matrix" values="0 0 0 0 0 0 0 0 0 0 0 0 0 0 0 0 0 0 0.1 0"/>
<feBlend mode="normal" in2="effect1_dropShadow" result="effect2_dropShadow"/>
<feBlend mode="normal" in="SourceGraphic" in2="effect2_dropShadow" result="shape"/>
</filter>
<filter id="filter2_dd" x="285.422" y="271.609" width="231.156" height="243.391" filterUnits="userSpaceOnUse" color-interpolation-filters="sRGB">
<feFlood flood-opacity="0" result="BackgroundImageFix"/>
<feColorMatrix in="SourceAlpha" type="matrix" values="0 0 0 0 0 0 0 0 0 0 0 0 0 0 0 0 0 0 127 0"/>
<feOffset dy="10"/>
<feGaussianBlur stdDeviation="5"/>
<feColorMatrix type="matrix" values="0 0 0 0 0 0 0 0 0 0 0 0 0 0 0 0 0 0 0.04 0"/>
<feBlend mode="normal" in2="BackgroundImageFix" result="effect1_dropShadow"/>
<feColorMatrix in="SourceAlpha" type="matrix" values="0 0 0 0 0 0 0 0 0 0 0 0 0 0 0 0 0 0 127 0"/>
<feOffset dy="20"/>
<feGaussianBlur stdDeviation="12.5"/>
<feColorMatrix type="matrix" values="0 0 0 0 0 0 0 0 0 0 0 0 0 0 0 0 0 0 0.1 0"/>
<feBlend mode="normal" in2="effect1_dropShadow" result="effect2_dropShadow"/>
<feBlend mode="normal" in="SourceGraphic" in2="effect2_dropShadow" result="shape"/>
</filter>
<clipPath id="clip0">
<rect width="616" height="787" fill="white"/>
</clipPath>
</defs>
</svg>
