<svg width="92" height="119" viewBox="0 0 92 119" fill="none" xmlns="http://www.w3.org/2000/svg">
<g filter="url(#filter0_dd)">
<path fill-rule="evenodd" clip-rule="evenodd" d="M46 2C64.1638 2 89 30.0892 89 64.7387C89 130.759 3 132.556 3 64.7387C3 30.0892 27.8363 2 46 2Z" fill="#FFBA08"/>
<path d="M31.0197 44.0546H33.0353C38.5298 44.0546 41.807 45.9096 42.867 49.6197C43.2254 50.8414 43.4045 52.2421 43.4045 53.8214V74.4726H31.0197V44.0546ZM14.4915 53.8214C14.4915 50.5287 15.2455 48.1148 16.7535 46.5802C18.4108 44.8965 21.1132 44.0546 24.8609 44.0546H26.8764V74.4726H14.4915V53.8214Z" fill="#370617"/>
<path d="M31.0198 44.0546V43.8957H30.8605V44.0546H31.0198ZM42.8671 49.6197L42.7138 49.6633L42.7142 49.6644L42.8671 49.6197ZM43.4046 74.4726V74.6315H43.5638V74.4726H43.4046ZM31.0198 74.4726H30.8605V74.6315H31.0198V74.4726ZM16.7535 46.5802L16.6399 46.4688L16.6398 46.4689L16.7535 46.5802ZM26.8765 44.0546H27.0357V43.8957H26.8765V44.0546ZM26.8765 74.4726V74.6315H27.0357V74.4726H26.8765ZM14.4915 74.4726H14.3323V74.6315H14.4915V74.4726ZM31.0198 44.2135H33.0353V43.8957H31.0198V44.2135ZM33.0353 44.2135C35.7668 44.2135 37.9294 44.6751 39.5355 45.5841C41.1367 46.4905 42.195 47.8472 42.7138 49.6633L43.0203 49.5762C42.4791 47.6822 41.3687 46.2564 39.6927 45.3076C38.0216 44.3618 35.7983 43.8957 33.0353 43.8957V44.2135ZM42.7142 49.6644C43.0674 50.8686 43.2453 52.2537 43.2453 53.8214H43.5638C43.5638 52.2305 43.3834 50.8144 43.0199 49.5751L42.7142 49.6644ZM43.2453 53.8214V74.4726H43.5638V53.8214H43.2453ZM43.4046 74.3136H31.0198V74.6315H43.4046V74.3136ZM31.179 74.4726V44.0546H30.8605V74.4726H31.179ZM14.6508 53.8214C14.6508 50.5485 15.4007 48.1839 16.8672 46.6914L16.6398 46.4689C15.0903 48.0458 14.3323 50.5086 14.3323 53.8214H14.6508ZM16.8671 46.6916C18.481 45.052 21.1318 44.2135 24.8609 44.2135V43.8957C21.0947 43.8957 18.3407 44.741 16.6399 46.4688L16.8671 46.6916ZM24.8609 44.2135H26.8765V43.8957H24.8609V44.2135ZM26.7172 44.0546V74.4726H27.0357V44.0546H26.7172ZM26.8765 74.3136H14.4915V74.6315H26.8765V74.3136ZM14.6508 74.4726V53.8214H14.3323V74.4726H14.6508Z" fill="#03071E"/>
<path d="M62.7595 53.5309C62.7595 50.1933 63.6106 47.7871 65.3127 46.3119C67.0595 44.8071 69.8589 44.0546 73.7111 44.0546H75.0772V60.1241C75.0772 67.0524 73.0914 71.4926 69.12 73.4444C67.7314 74.1299 66.0667 74.4726 64.1256 74.4726H62.7595V53.5309ZM57.4741 74.4726C53.7266 74.4726 50.9345 73.1689 49.0981 70.5614C47.3961 68.1476 46.545 64.6684 46.545 60.1241V44.0546H47.9111C51.7633 44.0546 54.5627 44.8071 56.3095 46.3119C58.0116 47.7871 58.8627 50.1933 58.8627 53.5309V74.4726H57.4741Z" fill="#370617"/>
<path d="M65.3127 46.3119L65.2086 46.1917L65.2083 46.1919L65.3127 46.3119ZM75.0773 44.0546H75.2365V43.8957H75.0773V44.0546ZM69.12 73.4444L69.0496 73.3019L69.0495 73.302L69.12 73.4444ZM62.7595 74.4726H62.6003V74.6315H62.7595V74.4726ZM49.0981 70.5614L49.2284 70.4701V70.4699L49.0981 70.5614ZM46.545 44.0546V43.8957H46.3857V44.0546H46.545ZM56.3095 46.3119L56.414 46.1919L56.4137 46.1917L56.3095 46.3119ZM58.8628 74.4726V74.6315H59.022V74.4726H58.8628ZM62.9188 53.5309C62.9188 50.2168 63.764 47.8646 65.4171 46.432L65.2083 46.1919C63.4572 47.7094 62.6003 50.1699 62.6003 53.5309H62.9188ZM65.4167 46.4322C67.1208 44.9643 69.8736 44.2135 73.7111 44.2135V43.8957C69.8445 43.8957 66.9984 44.6498 65.2086 46.1917L65.4167 46.4322ZM73.7111 44.2135H75.0773V43.8957H73.7111V44.2135ZM74.918 44.0546V60.1241H75.2365V44.0546H74.918ZM74.918 60.1241C74.918 67.0297 72.9395 71.3901 69.0496 73.3019L69.1904 73.587C73.2435 71.5951 75.2365 67.0753 75.2365 60.1241H74.918ZM69.0495 73.302C67.6876 73.9742 66.0482 74.3136 64.1256 74.3136V74.6315C66.0852 74.6315 67.7752 74.2855 69.1906 73.587L69.0495 73.302ZM64.1256 74.3136H62.7595V74.6315H64.1256V74.3136ZM62.9188 74.4726V53.5309H62.6003V74.4726H62.9188ZM57.4742 74.3136C53.7682 74.3136 51.0296 73.0274 49.2284 70.4701L48.9678 70.6528C50.8396 73.3103 53.6851 74.6315 57.4742 74.6315V74.3136ZM49.2284 70.4699C47.5528 68.0939 46.7043 64.6522 46.7043 60.1241H46.3857C46.3857 64.6848 47.2392 68.2015 48.9678 70.6528L49.2284 70.4699ZM46.7043 60.1241V44.0546H46.3857V60.1241H46.7043ZM46.545 44.2135H47.9111V43.8957H46.545V44.2135ZM47.9111 44.2135C51.7486 44.2135 54.5014 44.9643 56.2055 46.4322L56.4137 46.1917C54.6239 44.6498 51.7778 43.8957 47.9111 43.8957V44.2135ZM56.2052 46.432C57.8583 47.8646 58.7035 50.2168 58.7035 53.5309H59.022C59.022 50.1699 58.165 47.7094 56.414 46.1919L56.2052 46.432ZM58.7035 53.5309V74.4726H59.022V53.5309H58.7035ZM58.8628 74.3136H57.4742V74.6315H58.8628V74.3136Z" fill="#03071E"/>
</g>
<defs>
<filter id="filter0_dd" x="0" y="0" width="92" height="119" filterUnits="userSpaceOnUse" color-interpolation-filters="sRGB">
<feFlood flood-opacity="0" result="BackgroundImageFix"/>
<feColorMatrix in="SourceAlpha" type="matrix" values="0 0 0 0 0 0 0 0 0 0 0 0 0 0 0 0 0 0 127 0"/>
<feOffset dy="1"/>
<feGaussianBlur stdDeviation="1"/>
<feColorMatrix type="matrix" values="0 0 0 0 0 0 0 0 0 0 0 0 0 0 0 0 0 0 0.06 0"/>
<feBlend mode="normal" in2="BackgroundImageFix" result="effect1_dropShadow"/>
<feColorMatrix in="SourceAlpha" type="matrix" values="0 0 0 0 0 0 0 0 0 0 0 0 0 0 0 0 0 0 127 0"/>
<feOffset dy="1"/>
<feGaussianBlur stdDeviation="1.5"/>
<feColorMatrix type="matrix" values="0 0 0 0 0 0 0 0 0 0 0 0 0 0 0 0 0 0 0.1 0"/>
<feBlend mode="normal" in2="effect1_dropShadow" result="effect2_dropShadow"/>
<feBlend mode="normal" in="SourceGraphic" in2="effect2_dropShadow" result="shape"/>
</filter>
</defs>
</svg>
